<?xml version="1.0" encoding="UTF-8" standalone="no"?>
<svg
   xmlns:dc="http://purl.org/dc/elements/1.1/"
   xmlns:cc="http://creativecommons.org/ns#"
   xmlns:rdf="http://www.w3.org/1999/02/22-rdf-syntax-ns#"
   xmlns:svg="http://www.w3.org/2000/svg"
   xmlns="http://www.w3.org/2000/svg"
   style="fill:#f1f1f1"
   height="18"
   width="18"
   version="1.1"
   id="svg3400"
   viewBox="0 0 18 18">
  <metadata
     id="metadata31">
    <rdf:RDF>
      <cc:Work
         rdf:about="">
        <dc:format>image/svg+xml</dc:format>
        <dc:type
           rdf:resource="http://purl.org/dc/dcmitype/StillImage" />
        <dc:title></dc:title>
      </cc:Work>
    </rdf:RDF>
  </metadata>
  <defs
     id="defs29" />
  <path
     d="m 7.9210071,9.6186 c 0.00247,0 0.069517,-0.1271 0.1238027,-0.2191 C 8.4858763,8.6535 11.162848,2.016 11.818367,0.453 10.931859,0.1606 9.9845675,0 8.9998427,0 4.0292496,0 0,4.0296 0,9.0004 0,9.8201 0.11180425,10.6132 0.31703415,11.3676 0.88207947,10.9999 4.326143,8.6165 4.331304,8.6333 4.8828771,10.6646 6.7408919,11.7121 7.9210134,9.6186 Z M 15.877984,3.1983 C 15.20168,4.798 12.925902,10.1648 12.315732,11.3725 11.11385,13.5587 9.1934613,15.5984 6.5917182,15.7155 3.5379728,15.8529 1.9207658,14.6872 1.0502452,13.2192 2.562154,16.0633 5.5546275,18 8.9998427,18 13.970672,18 18,13.9704 18,9.0004 18,6.7887 17.200507,4.7651 15.877984,3.1983"
     id="logo" />
</svg>
