<?xml version="1.0" encoding="UTF-8" standalone="no"?>
<!-- Created with Inkscape (http://www.inkscape.org/) -->

<svg
   xmlns:dc="http://purl.org/dc/elements/1.1/"
   xmlns:cc="http://creativecommons.org/ns#"
   xmlns:rdf="http://www.w3.org/1999/02/22-rdf-syntax-ns#"
   xmlns:svg="http://www.w3.org/2000/svg"
   xmlns="http://www.w3.org/2000/svg"
   xmlns:sodipodi="http://sodipodi.sourceforge.net/DTD/sodipodi-0.dtd"
   xmlns:inkscape="http://www.inkscape.org/namespaces/inkscape"
   width="49"
   height="48"
   viewBox="0 0 49 48"
   version="1.1"
   preserveAspectRatio="xMinYMin meet"
   id="svg4705"
   inkscape:version="0.92.2 (5c3e80d, 2017-08-06)"
   sodipodi:docname="logo_fz_juelich_plain.svg">
  <metadata
     id="metadata4761">
    <rdf:RDF>
      <cc:Work
         rdf:about="">
        <dc:format>image/svg+xml</dc:format>
        <dc:type
           rdf:resource="http://purl.org/dc/dcmitype/StillImage" />
        <dc:title></dc:title>
      </cc:Work>
    </rdf:RDF>
  </metadata>
  <defs
     id="defs4759" />
  <sodipodi:namedview
     pagecolor="#ffffff"
     bordercolor="#666666"
     borderopacity="1"
     objecttolerance="10"
     gridtolerance="10"
     guidetolerance="10"
     inkscape:pageopacity="0"
     inkscape:pageshadow="2"
     inkscape:window-width="1680"
     inkscape:window-height="988"
     id="namedview4757"
     showgrid="false"
     inkscape:zoom="4.6354778"
     inkscape:cx="1.7679424"
     inkscape:cy="4.8963638"
     inkscape:window-x="-8"
     inkscape:window-y="-8"
     inkscape:window-maximized="1"
     inkscape:current-layer="svg4705"
     viewbox-width="49" />
  <g
     id="g4754"
     transform="matrix(0.36111112,0,0,0.36111112,-0.72222224,-62.055556)"
     style="stroke-width:2.76923084" />
  <path
     style="fill:#193a65;fill-opacity:0.3609959;fill-rule:evenodd;stroke:none;stroke-width:0.1;stroke-linecap:butt;stroke-linejoin:miter;stroke-miterlimit:4;stroke-dasharray:0.1, 0.1;stroke-dashoffset:0;stroke-opacity:1"
     d="M 24.85092,0.01120483 C 15.095109,-0.36482533 4.9184108,5.4197445 1.4448708,14.759527 -1.1940179,23.046678 -0.40132263,32.932541 5.4583917,39.700496 13.439773,49.172322 28.789222,50.674952 38.703672,43.405155 46.415302,37.999612 50.64501,27.811202 48.233593,18.589699 45.98717,9.1953332 37.730631,1.6002026 28.145675,0.27751618 27.055321,0.112925 25.953589,0.02324998 24.85092,0.01120483 Z"
     id="filled"
     inkscape:connector-curvature="0" />
  <path
     style="fill:#111111;stroke:none;stroke-width:7.66863966"
     d="M 24.981111,0.01697143 C 15.553832,-0.34219513 5.8824589,5.0255389 1.9174728,13.699393 0.12668869,17.401886 0.96704717,22.265238 4.3541788,24.77002 8.668236,28.340124 15.931648,26.582835 18.269729,21.522442 20.890731,15.32075 23.28261,9.0187236 25.812796,2.7772709 26.16317,1.8990352 26.513543,1.0207995 26.863917,0.14256375 26.238194,0.07696703 25.609959,0.03587116 24.981111,0.01697143 Z M 41.109833,6.4531887 C 38.294404,13.413996 35.61079,20.430741 32.706502,27.353855 29.340823,34.730295 21.969396,40.026361 13.895915,40.852436 11.661887,41.354304 7.912866,40.702628 6.6143785,40.901736 13.838079,48.101542 25.574564,50.047998 34.781507,45.709607 43.267735,41.976174 49.221748,33.03946 48.993668,23.712707 48.932958,17.183268 45.963037,10.802841 41.109833,6.4531917 Z"
     id="logo"
     inkscape:connector-curvature="0"
     inkscape:export-xdpi="1024"
     inkscape:export-ydpi="1024" />
</svg>
