<?xml version="1.0" encoding="UTF-8" standalone="no"?>
<svg
   xmlns:dc="http://purl.org/dc/elements/1.1/"
   xmlns:cc="http://creativecommons.org/ns#"
   xmlns:rdf="http://www.w3.org/1999/02/22-rdf-syntax-ns#"
   xmlns:svg="http://www.w3.org/2000/svg"
   xmlns="http://www.w3.org/2000/svg"
   version="1.1"
   id="svg3400"
   viewBox="0 0 69 21"
   height="21"
   width="69">
  <defs
     id="defs3402" />
  <metadata
     id="metadata3405">
    <rdf:RDF>
      <cc:Work
         rdf:about="">
        <dc:format>image/svg+xml</dc:format>
        <dc:type
           rdf:resource="http://purl.org/dc/dcmitype/StillImage" />
        <dc:title></dc:title>
      </cc:Work>
    </rdf:RDF>
  </metadata>
  <g
     id="layer1" />
  <path
     d="m 7.9210071,9.6186 c 0.00247,0 0.069517,-0.1271 0.1238027,-0.2191 C 8.4858763,8.6535 11.162848,2.016 11.818367,0.453 10.931859,0.1606 9.9845675,0 8.9998427,0 4.0292496,0 0,4.0296 0,9.0004 0,9.8201 0.11180425,10.6132 0.31703415,11.3676 0.88207947,10.9999 4.326143,8.6165 4.331304,8.6333 4.8828771,10.6646 6.7408919,11.7121 7.9210134,9.6186 Z M 15.877984,3.1983 C 15.20168,4.798 12.925902,10.1648 12.315732,11.3725 11.11385,13.5587 9.1934613,15.5984 6.5917182,15.7155 3.5379728,15.8529 1.9207658,14.6872 1.0502452,13.2192 2.562154,16.0633 5.5546275,18 8.9998427,18 13.970672,18 18,13.9704 18,9.0004 18,6.7887 17.200507,4.7651 15.877984,3.1983"
     id="logo" />
  <path
     d="m 22.645165,19.1834 0,0.3029 -1.261087,0 0,1.4579 -0.350028,0 0,-3.1071 1.709207,0 0,0.3028 -1.359179,0 0,1.0435 1.261087,0"
     id="f" />
  <path
     d="m 23.649377,19.3696 c 0,0.8059 0.350557,1.3184 0.896593,1.3184 0.537215,0 0.892182,-0.5172 0.892182,-1.2996 0,-0.7873 -0.354967,-1.2997 -0.892182,-1.2997 -0.536862,0 -0.896593,0.5124 -0.896593,1.2809 z m 2.162267,0.019 c 0,0.9549 -0.513573,1.607 -1.265674,1.607 -0.765685,0 -1.270085,-0.6475 -1.270085,-1.6303 0,-0.9271 0.523101,-1.5838 1.270085,-1.5838 0.752101,0 1.265674,0.6521 1.265674,1.6071"
     id="o" />
  <path
     d="m 27.165884,19.3138 c 0.378256,0 0.485875,-0.01 0.630544,-0.061 0.224236,-0.079 0.350204,-0.2748 0.350204,-0.5403 0,-0.2376 -0.107267,-0.4192 -0.294101,-0.4984 -0.144845,-0.065 -0.252112,-0.075 -0.695997,-0.075 l -0.210123,0 0,1.1739 0.219473,0 z m -0.0187,-1.4767 c 0.481112,0 0.658595,0.019 0.863954,0.098 0.312979,0.1211 0.5044,0.4146 0.5044,0.7824 0,0.41 -0.214533,0.6894 -0.639894,0.8433 l 0.817378,1.3834 -0.420422,0 -0.784386,-1.3275 -0.541802,0 0,1.3275 -0.350204,0 0,-3.1071 0.550976,0"
     id="r" />
  <path
     d="m 30.822473,18.6432 c -0.03264,-0.3541 -0.252112,-0.5545 -0.607079,-0.5545 -0.32674,0 -0.569501,0.2004 -0.569501,0.4751 0,0.1306 0.06528,0.2469 0.186658,0.3261 0.10268,0.07 0.10268,0.07 0.555916,0.2749 0.410894,0.1817 0.574264,0.2842 0.691057,0.4239 0.11203,0.1397 0.172721,0.3213 0.172721,0.5216 0,0.5311 -0.410895,0.8851 -1.017974,0.8851 -0.378255,0 -0.677296,-0.1351 -0.85478,-0.3772 -0.12138,-0.1678 -0.17272,-0.3355 -0.186834,-0.6197 l 0.34103,0 c 0.03264,0.4474 0.280339,0.6895 0.714522,0.6895 0.378255,0 0.644481,-0.2237 0.644481,-0.5357 0,-0.1538 -0.06087,-0.2748 -0.187011,-0.382 -0.09774,-0.084 -0.177307,-0.1258 -0.485522,-0.261 -0.336266,-0.1489 -0.541625,-0.2608 -0.649068,-0.3493 -0.182247,-0.149 -0.275753,-0.3399 -0.275753,-0.5682 0,-0.4703 0.392546,-0.8105 0.938935,-0.8105 0.340854,0 0.625604,0.1351 0.784563,0.3727 0.09333,0.1351 0.130731,0.2701 0.144669,0.4892 l -0.34103,0"
     id="s" />
  <path
     d="m 33.876922,18.6989 c -0.08892,-0.4098 -0.327092,-0.6102 -0.709758,-0.6102 -0.555916,0 -0.90612,0.5031 -0.90612,1.3043 0,0.8058 0.345441,1.2996 0.91053,1.2996 0.434536,0 0.700585,-0.2795 0.751925,-0.8012 l 0.331679,0 C 34.199078,20.5995 33.811469,21 33.185688,21 c -0.793913,0 -1.298313,-0.6194 -1.298313,-1.5976 0,-0.9829 0.5044,-1.6211 1.284199,-1.6211 0.579204,0 0.952697,0.3353 1.032264,0.9176 l -0.326916,0"
     id="c" />
  <path
     d="m 36.805228,19.1741 0,-1.337 0.350027,0 0,3.1071 -0.350027,0 0,-1.4814 -1.461859,0 0,1.4814 -0.350381,0 0,-3.1071 0.350381,0 0,1.337 1.461859,0"
     id="h" />
  <path
     d="m 38.402052,17.8371 0,1.8308 c 0,0.4751 0.01888,0.5914 0.112207,0.7359 0.116793,0.177 0.354967,0.2842 0.639718,0.2842 0.331679,0 0.593141,-0.1445 0.686646,-0.3821 0.05134,-0.121 0.06051,-0.2421 0.06051,-0.638 l 0,-1.8308 0.350381,0 0,1.8353 c 0,0.4939 -0.0094,0.5776 -0.07463,0.7453 -0.149609,0.3634 -0.527864,0.5777 -1.022913,0.5777 -0.499637,0 -0.877892,-0.2143 -1.027324,-0.5777 -0.06545,-0.1677 -0.0748,-0.2514 -0.0748,-0.7453 l 0,-1.8353 0.350204,0"
     id="u" />
  <path
     d="m 41.53113,17.8371 1.494498,2.5854 0,-2.5854 0.326915,0 0,3.1071 -0.382666,0 -1.4855,-2.5806 0,2.5806 -0.331679,0 0,-3.1071 0.378432,0"
     id="n" />
  <path
     d="m 46.504909,19.4024 0,1.2762 C 46.210985,20.893 45.860428,21 45.477585,21 c -0.840666,0 -1.345242,-0.6055 -1.345242,-1.6163 0,-0.9783 0.504576,-1.6024 1.298489,-1.6024 0.583615,0 0.962047,0.3308 1.031911,0.9131 l -0.326563,0 c -0.09351,-0.4148 -0.317742,-0.6057 -0.705348,-0.6057 -0.57444,0 -0.924468,0.4891 -0.924468,1.2997 0,0.8291 0.354791,1.3042 0.975808,1.3042 0.237998,0 0.476525,-0.07 0.705348,-0.2048 l 0,-0.7826 -0.630544,0 0,-0.3028 0.947933,0"
     id="g" />
  <path
     d="m 48.806905,18.6432 c -0.03229,-0.3541 -0.251759,-0.5545 -0.606726,-0.5545 -0.327093,0 -0.569854,0.2004 -0.569854,0.4751 0,0.1306 0.06545,0.2469 0.186658,0.3261 0.10268,0.07 0.10268,0.07 0.555916,0.2749 0.411071,0.1817 0.574264,0.2842 0.691057,0.4239 0.11203,0.1397 0.172721,0.3213 0.172721,0.5216 0,0.5311 -0.410718,0.8851 -1.017974,0.8851 -0.378255,0 -0.676943,-0.1351 -0.854427,-0.3772 -0.121733,-0.1678 -0.173073,-0.3355 -0.187187,-0.6197 l 0.341206,0 c 0.03264,0.4474 0.280163,0.6895 0.714346,0.6895 0.378256,0 0.644658,-0.2237 0.644658,-0.5357 0,-0.1538 -0.06069,-0.2748 -0.186835,-0.382 -0.09809,-0.084 -0.177483,-0.1258 -0.485875,-0.261 -0.336266,-0.1489 -0.541625,-0.2608 -0.649068,-0.3493 -0.182071,-0.149 -0.2754,-0.3399 -0.2754,-0.5682 0,-0.4703 0.392193,-0.8105 0.938582,-0.8105 0.340854,0 0.625781,0.1351 0.78474,0.3727 0.09333,0.1351 0.130554,0.2701 0.144668,0.4892 l -0.341206,0"
     id="s2" />
  <path
     d="m 51.791314,17.8371 0,0.2377 -1.601941,2.5666 1.573713,0 0,0.3028 -1.984784,0 0,-0.2701 1.587827,-2.5388 -1.489558,0 0,-0.2982 1.914743,0"
     id="z" />
  <path
     d="m 54.089075,19.1834 0,0.3029 -1.26091,0 0,1.1551 1.391818,0 0,0.3028 -1.742199,0 0,-3.1071 1.70956,0 0,0.3028 -1.359179,0 0,1.0435 1.26091,0"
     id="e" />
  <path
     d="m 55.340636,17.8371 1.494321,2.5854 0,-2.5854 0.327093,0 0,3.1071 -0.383196,0 -1.484794,-2.5806 0,2.5806 -0.331856,0 0,-3.1071 0.378432,0"
     id="n2" />
  <path
     d="m 59.772613,17.8371 0,0.3028 -0.812967,0 0,2.8043 -0.350028,0 0,-2.8043 -0.808027,0 0,-0.3028 1.971022,0"
     id="t" />
  <path
     d="m 60.977245,19.3138 c 0.378255,0 0.485875,-0.01 0.630543,-0.061 0.22406,-0.079 0.350028,-0.2748 0.350028,-0.5403 0,-0.2376 -0.10709,-0.4192 -0.293925,-0.4984 -0.145021,-0.065 -0.252111,-0.075 -0.695997,-0.075 l -0.210122,0 0,1.1739 0.219473,0 z m -0.0187,-1.4767 c 0.481112,0 0.658596,0.019 0.863955,0.098 0.312802,0.1211 0.504399,0.4146 0.504399,0.7824 0,0.41 -0.214709,0.6894 -0.639894,0.8433 l 0.817378,1.3834 -0.420421,0 -0.784563,-1.3275 -0.541625,0 0,1.3275 -0.350204,0 0,-3.1071 0.550975,0"
     id="r2" />
  <path
     d="m 63.44261,17.8371 0,1.8308 c 0,0.4751 0.0187,0.5914 0.11203,0.7359 0.116794,0.177 0.354968,0.2842 0.639894,0.2842 0.331503,0 0.593142,-0.1445 0.686471,-0.3821 0.05134,-0.121 0.06069,-0.2421 0.06069,-0.638 l 0,-1.8308 0.350381,0 0,1.8353 c 0,0.4939 -0.0094,0.5776 -0.0748,0.7453 -0.149608,0.3634 -0.527864,0.5777 -1.022737,0.5777 -0.499636,0 -0.877891,-0.2143 -1.0275,-0.5777 -0.06545,-0.1677 -0.0748,-0.2514 -0.0748,-0.7453 l 0,-1.8353 0.35038,0"
     id="u2" />
  <path
     d="m 66.72112,17.8371 0.873481,2.7251 0.877892,-2.7251 0.527511,0 0,3.1071 -0.331326,0 0,-2.7576 -0.896593,2.7576 -0.350557,0 -0.896593,-2.7576 0,2.7576 -0.331503,0 0,-3.1071 0.527688,0"
     id="m" />
  <path
     d="m 24.997442,3.1045 0,8.0812 c 0,1.8718 -0.06104,2.3284 -0.366259,2.8912 -0.472819,0.8372 -1.418988,1.2177 -3.05145,1.2177 -0.12191,0 -0.320388,0 -0.579733,-0.015 l 0,-1.6284 0.335561,0 c 0.884948,-0.015 1.358121,-0.1524 1.541074,-0.4719 0.152608,-0.2283 0.16778,-0.4563 0.16778,-1.9478 l 0,-8.1268 1.953027,0"
     id="J" />
  <path
     d="m 34.227832,1.1109 c 0,0.624 -0.503165,1.1263 -1.113772,1.1263 -0.625604,0 -1.128945,-0.5023 -1.128945,-1.1108 0,-0.6389 0.503341,-1.1264 1.128945,-1.1264 0.610607,0 1.113772,0.5022 1.113772,1.1109 z m -2.837623,0 c 0,0.624 -0.503517,1.1263 -1.113949,1.1263 -0.625956,0 -1.128944,-0.5023 -1.128944,-1.1108 0,-0.6389 0.502988,-1.1264 1.128944,-1.1264 0.610432,0 1.113949,0.5022 1.113949,1.1109 z m -1.77025,1.9936 0,5.8287 c 0,1.0195 0.03034,1.3548 0.183482,1.75 0.274341,0.6848 0.960988,1.0808 1.891807,1.0808 1.083428,0 1.769722,-0.4869 1.983372,-1.4002 0.07657,-0.3198 0.09139,-0.6241 0.09139,-1.4306 l 0,-5.8287 1.953027,0 0,5.8592 c 0,1.461 -0.07604,1.9632 -0.396428,2.6023 -0.579909,1.2024 -1.922329,1.8871 -3.63136,1.8871 -1.708678,0 -3.051626,-0.6847 -3.63136,-1.8871 -0.320388,-0.6391 -0.396427,-1.1413 -0.396427,-2.6023 l 0,-5.8592 1.952498,0"
     id="Ü" />
  <path
     d="m 40.452995,3.1045 0,8.4921 4.409042,0 0,1.6587 -6.407939,0 0,-10.1508 1.998897,0"
     id="L" />
  <path
     d="m 46.693155,13.2553 1.952815,0 0,-10.1507 -1.952815,0 0,10.1507 z"
     id="I" />
  <path
     d="M 57.174929,6.4072 C 56.991799,5.2352 56.320325,4.596 55.282945,4.596 c -1.510553,0 -2.456368,1.385 -2.456368,3.6067 0,2.222 0.945815,3.5768 2.47154,3.5768 1.190165,0 1.831294,-0.746 1.953204,-2.2831 l 1.739199,0 c -0.122086,2.6173 -1.342948,3.9567 -3.616363,3.9567 -2.791753,0 -4.576999,-2.0544 -4.576999,-5.235 0,-1.8566 0.549388,-3.3026 1.617466,-4.2614 0.778211,-0.6846 1.769721,-1.0501 2.868321,-1.0501 2.166678,0 3.448407,1.248 3.585489,3.5006 l -1.693505,0"
     id="C" />
  <path
     d="m 66.985228,7.1527 0,-4.0482 1.952851,0 0,10.1508 -1.952851,0 0,-4.4894 -4.042783,0 0,4.4894 -1.953204,0 0,-10.1508 1.953204,0 0,4.0482 4.042783,0"
     id="H" />
</svg>
