<?xml version="1.0" encoding="UTF-8" standalone="no"?>
<svg
   xmlns:osb="http://www.openswatchbook.org/uri/2009/osb"
   xmlns:dc="http://purl.org/dc/elements/1.1/"
   xmlns:cc="http://creativecommons.org/ns#"
   xmlns:rdf="http://www.w3.org/1999/02/22-rdf-syntax-ns#"
   xmlns:svg="http://www.w3.org/2000/svg"
   xmlns="http://www.w3.org/2000/svg"
   xmlns:xlink="http://www.w3.org/1999/xlink"
   height="527.23303"
   width="1108.515"
   version="1.1"
   id="svg4136"
   viewBox="0 0 1108.515 527.23303">
  <metadata
     id="metadata4530">
    <rdf:RDF>
      <cc:Work
         rdf:about="">
        <dc:format>image/svg+xml</dc:format>
        <dc:type
           rdf:resource="http://purl.org/dc/dcmitype/StillImage" />
        <dc:title></dc:title>
      </cc:Work>
    </rdf:RDF>
  </metadata>
  <defs
     id="defs4528">
    <linearGradient
       osb:paint="solid"
       id="linearGradient6477">
      <stop
         id="stop6479"
         offset="0"
         style="stop-color:#000000;stop-opacity:1;" />
    </linearGradient>
    <linearGradient
       osb:paint="solid"
       id="linearGradient6473">
      <stop
         id="stop6475"
         offset="0"
         style="stop-color:#ffffff;stop-opacity:1;" />
    </linearGradient>
    <linearGradient
       gradientTransform="matrix(1.0132886,0,0,1.1448866,-15.863612,-247.75266)"
       gradientUnits="userSpaceOnUse"
       y2="290.64246"
       x2="1081.4987"
       y1="290.64246"
       x1="1032.1414"
       id="linearGradient6481"
       xlink:href="#linearGradient6473" />
    <linearGradient
       gradientTransform="matrix(1.0132886,0,0,1.1448895,-16.102341,-247.74336)"
       gradientUnits="userSpaceOnUse"
       y2="377.97827"
       x2="1081.7343"
       y1="377.97827"
       x1="1032.377"
       id="linearGradient6485"
       xlink:href="#linearGradient6473" />
    <linearGradient
       gradientTransform="matrix(1.0132927,0,0,1.1448866,-16.190064,-247.63418)"
       gradientUnits="userSpaceOnUse"
       y2="421.55634"
       x2="1081.8164"
       y1="421.55634"
       x1="1032.4592"
       id="linearGradient6487"
       xlink:href="#linearGradient6473" />
    <linearGradient
       gradientTransform="matrix(1.0132907,0,0,1.1448895,-16.343443,-247.73314)"
       gradientUnits="userSpaceOnUse"
       y2="465.31403"
       x2="1081.9698"
       y1="465.31403"
       x1="1032.6125"
       id="linearGradient6489"
       xlink:href="#linearGradient6473" />
    <linearGradient
       gradientTransform="matrix(1.0132895,0,0,1.1448903,-11.533959,-248.03985)"
       gradientUnits="userSpaceOnUse"
       y2="509.25391"
       x2="819.64795"
       y1="509.25391"
       x1="770.29059"
       id="linearGradient6491"
       xlink:href="#linearGradient6473" />
    <linearGradient
       gradientTransform="matrix(1.0132917,0,0,1.1448895,-11.452448,-248.14731)"
       gradientUnits="userSpaceOnUse"
       y2="465.67578"
       x2="819.56567"
       y1="465.67578"
       x1="770.20844"
       id="linearGradient6493"
       xlink:href="#linearGradient6473" />
    <linearGradient
       gradientTransform="matrix(1.0132893,0,0,1.1448895,-11.056292,-248.05973)"
       gradientUnits="userSpaceOnUse"
       y2="334.58228"
       x2="819.1767"
       y1="334.58228"
       x1="769.81934"
       id="linearGradient6499"
       xlink:href="#linearGradient6473" />
    <linearGradient
       gradientTransform="matrix(1.0132917,0,0,1.1448895,-10.974932,-248.16774)"
       gradientUnits="userSpaceOnUse"
       y2="291.00427"
       x2="819.09442"
       y1="291.00427"
       x1="769.73718"
       id="linearGradient6501"
       xlink:href="#linearGradient6473" />
    <linearGradient
       gradientTransform="matrix(1.0132917,0,0,1.133151,-12.795007,-244.7809)"
       gradientUnits="userSpaceOnUse"
       y2="313.09232"
       x2="891.94617"
       y1="313.09232"
       x1="842.58893"
       id="linearGradient6503"
       xlink:href="#linearGradient6473" />
    <linearGradient
       gradientTransform="matrix(1.0132917,0,0,1.133151,-13.010836,-244.83318)"
       gradientUnits="userSpaceOnUse"
       y2="401.38797"
       x2="892.15918"
       y1="401.38797"
       x1="842.80194"
       id="linearGradient6505"
       xlink:href="#linearGradient6473" />
    <linearGradient
       gradientTransform="matrix(1.0132894,0,0,1.1448903,-13.025005,-250.05807)"
       gradientUnits="userSpaceOnUse"
       y2="467.34439"
       x2="892.17517"
       y1="467.34439"
       x1="842.81781"
       id="linearGradient6507"
       xlink:href="#linearGradient6473" />
    <linearGradient
       gradientTransform="matrix(1.0132917,0,0,1.1448903,-13.160184,-250.18051)"
       gradientUnits="userSpaceOnUse"
       y2="511.12366"
       x2="892.30658"
       y1="511.12366"
       x1="842.94928"
       id="linearGradient6509"
       xlink:href="#linearGradient6473" />
    <linearGradient
       gradientTransform="matrix(1.0132888,0,0,1.1448895,0.8310056,-247.067)"
       gradientUnits="userSpaceOnUse"
       y2="307.51178"
       x2="105.77007"
       y1="307.51178"
       x1="56.412689"
       id="linearGradient6515"
       xlink:href="#linearGradient6473" />
    <linearGradient
       gradientTransform="matrix(1.0132894,0,0,1.1448866,-5.6361194,-246.78097)"
       gradientUnits="userSpaceOnUse"
       y2="307.26273"
       x2="295.71292"
       y1="307.26273"
       x1="246.35556"
       id="linearGradient6517"
       xlink:href="#linearGradient6473" />
    <linearGradient
       gradientTransform="matrix(1.0132917,0,0,1.1448895,-5.7699351,-246.90433)"
       gradientUnits="userSpaceOnUse"
       y2="351.04202"
       x2="295.8443"
       y1="351.04202"
       x1="246.48706"
       id="linearGradient6519"
       xlink:href="#linearGradient6473" />
    <linearGradient
       gradientUnits="userSpaceOnUse"
       y2="351.10333"
       x2="105.95357"
       y1="351.10333"
       x1="56.596313"
       id="linearGradient6511-5"
       xlink:href="#linearGradient6473"
       gradientTransform="matrix(1.0132916,0,0,1.1448866,0.6447852,-246.9735)" />
    <linearGradient
       gradientUnits="userSpaceOnUse"
       y2="416.95096"
       x2="105.96732"
       y1="416.95096"
       x1="56.610065"
       id="linearGradient6513-5"
       xlink:href="#linearGradient6473"
       gradientTransform="matrix(1.0132916,0,0,1.133151,0.6308525,-242.4684)" />
    <linearGradient
       gradientUnits="userSpaceOnUse"
       y2="378.34003"
       x2="819.33008"
       y1="378.34003"
       x1="769.97284"
       id="linearGradient6497-0"
       xlink:href="#linearGradient6473"
       gradientTransform="matrix(1.0132917,0,0,1.1448895,-11.213698,-248.15752)" />
    <linearGradient
       gradientUnits="userSpaceOnUse"
       y2="421.91815"
       x2="819.41229"
       y1="421.91815"
       x1="770.05493"
       id="linearGradient6495-5"
       xlink:href="#linearGradient6473"
       gradientTransform="matrix(1.0132888,0,0,1.1448903,-11.294479,-248.05)" />
    <linearGradient
       gradientUnits="userSpaceOnUse"
       y2="334.22052"
       x2="1081.5808"
       y1="334.22052"
       x1="1032.2236"
       id="linearGradient6483-8"
       xlink:href="#linearGradient6473"
       gradientTransform="matrix(1,0,0,1.1448895,-2.2236,-247.64557)" />
  </defs>
  <g
     transform="translate(-12.858935,-22.76699)"
     id="mainG">
    <rect
       y="33.102509"
       x="36.793339"
       height="426.69943"
       width="1061.5449"
       id="Background"
       style="color:#000000;clip-rule:nonzero;display:inline;overflow:visible;visibility:visible;opacity:1;isolation:auto;color-interpolation:sRGB;color-interpolation-filters:linearRGB;solid-color:#000000;solid-opacity:1;fill:#cccccc;stroke:#626262;stroke-width:1.5;stroke-linecap:round;stroke-linejoin:round;stroke-miterlimit:22.92558479;stroke-opacity:1;color-rendering:auto;image-rendering:auto;shape-rendering:auto;text-rendering:auto;enable-background:accumulate" />
    <g
       id="Rooms">
      <rect
         y="53.075283"
         x="54.074535"
         height="405.9726"
         width="252.36195"
         id="R2032"
         style="color:#000000;clip-rule:nonzero;display:inline;overflow:visible;visibility:visible;opacity:1;isolation:auto;color-interpolation:sRGB;color-interpolation-filters:linearRGB;solid-color:#000000;solid-opacity:1;fill:#cccccc;stroke:none;stroke-width:13.2139473;stroke-linecap:round;stroke-linejoin:round;stroke-miterlimit:4;stroke-opacity:1;color-rendering:auto;image-rendering:auto;shape-rendering:auto;text-rendering:auto;enable-background:accumulate" />
      <rect
         y="54.477566"
         x="306.85324"
         height="405.00369"
         width="261.80026"
         id="R2031"
         style="color:#000000;clip-rule:nonzero;display:inline;overflow:visible;visibility:visible;opacity:1;isolation:auto;color-interpolation:sRGB;color-interpolation-filters:linearRGB;solid-color:#000000;solid-opacity:1;fill:#cccccc;stroke:none;stroke-width:0.73367077;stroke-linecap:round;stroke-linejoin:round;stroke-miterlimit:4;stroke-opacity:1;color-rendering:auto;image-rendering:auto;shape-rendering:auto;text-rendering:auto;enable-background:accumulate" />
      <rect
         y="54.465389"
         x="569.70837"
         height="404.51245"
         width="248.21498"
         id="R2030"
         style="color:#000000;clip-rule:nonzero;display:inline;overflow:visible;visibility:visible;opacity:1;isolation:auto;color-interpolation:sRGB;color-interpolation-filters:linearRGB;solid-color:#000000;solid-opacity:1;fill:#cccccc;stroke:none;stroke-width:0.70915657;stroke-linecap:round;stroke-linejoin:round;stroke-miterlimit:4;stroke-opacity:1;color-rendering:auto;image-rendering:auto;shape-rendering:auto;text-rendering:auto;enable-background:accumulate" />
      <rect
         y="54.412716"
         x="841.0946"
         height="403.76825"
         width="241.01822"
         id="R2029"
         style="color:#000000;clip-rule:nonzero;display:inline;overflow:visible;visibility:visible;opacity:1;isolation:auto;color-interpolation:sRGB;color-interpolation-filters:linearRGB;solid-color:#000000;solid-opacity:1;fill:#cccccc;stroke:none;stroke-width:0.7008723;stroke-linecap:round;stroke-linejoin:round;stroke-miterlimit:4;stroke-opacity:1;color-rendering:auto;image-rendering:auto;shape-rendering:auto;text-rendering:auto;enable-background:accumulate" />
    </g>
    <g
       id="Doors">
      <g
         id="g4202"
         transform="matrix(0,-0.83723319,-0.85077073,0,-174.27627,723.0477)">
        <path
           d="m 470.79119,-870.22631 0,0.11508 -0.24282,6.95907 -0.73303,7.07434 -1.21896,6.95967 -1.70938,6.95877 -2.19429,6.7298 -2.68288,6.59173 -3.0494,6.36246 -3.53685,6.10931 -4.02544,5.99462 -4.26816,5.65028 -4.75846,5.28264 -5.1203,5.03008 -5.3679,4.68514 -5.73196,4.20311 -5.97713,3.95056 -6.3417,3.35376 -6.46489,3.12349 -6.70792,2.52639 -6.82967,2.15914 -6.95327,1.67643 -7.19558,1.19461 -7.07494,0.73488 -7.19588,0.22956 0,-103.53984"
           style="fill:none;stroke:#1a1a18;stroke-width:2.11626816;stroke-linecap:round;stroke-linejoin:round;stroke-miterlimit:10.00000095"
           id="path4204" />
      </g>
      <g
         id="g4246"
         transform="matrix(0,-0.85079654,-0.85080746,0,-172.80522,728.45058)">
        <path
           d="m 314.46954,-769.7594 -7.0799,0.2526 -7.0795,0.7121 -6.9607,1.1948 -6.8412,1.6996 -6.7192,2.1594 -6.5999,2.5039 -6.3607,3.1241 -6.2393,3.4917 -5.8808,3.8364 -5.6392,4.3186 -5.4006,4.5484 -4.9187,5.0539 -4.6817,5.3986 -4.3186,5.6279 -3.8409,5.8808 -3.4801,6.1333 -2.9999,6.4783 -2.6396,6.478 -2.1592,6.8454 -1.6818,6.823 -1.1993,6.9602 -0.7211,7.0982 -0.239,7.0753 103.6809,0"
           style="fill:none;stroke:#1a1a18;stroke-width:2.08667469;stroke-linecap:round;stroke-linejoin:round;stroke-miterlimit:10.00000095"
           id="path4248" />
      </g>
      <g
         id="g4254"
         transform="matrix(0,-0.85136805,-0.8584175,0,-183.47301,730.14291)">
        <path
           d="m 316.42125,-1385.1972 -7.0798,0.2389 -7.0798,0.7212 -6.9605,1.1993 -6.8414,1.6818 -6.7192,2.1591 -6.5996,2.6397 -6.3607,2.9999 -6.2396,3.4801 -5.8805,3.8409 -5.6395,4.3186 -5.4006,4.6817 -4.9184,4.9187 -4.6817,5.4005 -4.3186,5.6393 -3.8412,5.8807 -3.4798,6.2394 -3.0002,6.3606 -2.6396,6.5999 -2.1589,6.7193 -1.6818,6.8411 -1.1993,6.9602 -0.7212,7.0801 -0.2389,7.0798 103.6808,0"
           style="fill:none;stroke:#1a1a18;stroke-width:2.08089995;stroke-linecap:round;stroke-linejoin:round;stroke-miterlimit:10.00000095"
           id="path4256" />
      </g>
      <g
         id="g4270"
         transform="matrix(0,-0.85091973,-0.85087469,0,-184.47049,728.04002)">
        <path
           d="m 469.0828,-576.3138 -0.2389,-7.0756 -0.7212,-6.9601 -1.1993,-7.0756 -1.6818,-6.846 -2.1589,-6.7303 -2.6396,-6.5928 -3.0002,-6.3632 -3.4798,-6.2252 -3.9605,-5.881 -4.1993,-5.6511 -4.6817,-5.2835 -5.0377,-5.031 -5.2813,-4.6859 -5.6395,-4.2041 -5.8807,-3.9509 -6.2394,-3.492 -6.3606,-2.9863 -6.5997,-2.6413 -6.7195,-2.1595 -6.8411,-1.6772 -7.0795,-1.1943 -6.9608,-0.735 -7.0798,-0.2302 0,103.6721"
           style="fill:none;stroke:#1a1a18;stroke-width:2.08645153;stroke-linecap:round;stroke-linejoin:round;stroke-miterlimit:10.00000095"
           id="path4272" />
      </g>
      <g
         id="g4278"
         transform="matrix(0,-0.8508398,-0.85103061,0,-173.68339,714.06924)">
        <path
           d="m 297.5542,-1077.2785 -7.0798,0.2526 -7.0796,0.7121 -6.9607,1.1948 -6.8412,1.6767 -6.7192,2.1594 -6.5999,2.6416 -6.3607,3.0093 -6.2393,3.4687 -5.8808,3.8367 -5.6392,4.3413 -5.4006,4.6635 -4.9186,4.9159 -4.6817,5.3986 -4.3183,5.6508 -3.8413,5.8808 -3.4801,6.1103 -2.9999,6.4781 -2.6396,6.616 -2.1591,6.7076 -1.6818,6.846 -1.1994,6.9602 -0.7211,7.0755 -0.239,7.075 103.6809,0"
           style="fill:none;stroke:#1a1a18;stroke-width:2.08213568;stroke-linecap:round;stroke-linejoin:round;stroke-miterlimit:10.00000095"
           id="path4280" />
      </g>
      <g
         id="g4286"
         transform="matrix(0,-0.85077257,-0.8509573,0,-173.25164,714.28123)">
        <path
           d="m 297.8229,-462.2573 -7.0795,0.2296 -7.0798,0.7121 -6.9605,1.2177 -6.8414,1.6767 -6.7193,2.1595 -6.5999,2.5268 -6.3604,3.1011 -6.2396,3.492 -5.8805,3.8361 -5.6395,4.3189 -5.4005,4.5711 -4.9184,5.0309 -4.6817,5.3986 -4.3186,5.6509 -3.8413,5.8807 -3.4798,6.111 -3.0002,6.4777 -2.6396,6.478 -2.1591,6.8457 -1.6815,6.8454 -1.1994,6.9605 -0.7214,7.0755 -0.2387,7.0753 103.6806,0"
           style="fill:none;stroke:#1a1a18;stroke-width:2.09073305;stroke-linecap:round;stroke-linejoin:round;stroke-miterlimit:10.00000095"
           id="path4288" />
      </g>
    </g>
    <g
       id="Cabinets">
      <path
         d="m 555.5,282.5 0,-69 -44,0 0,69 44,0 z"
         style="fill:#ff8080;stroke:#ff0000;stroke-width:1;stroke-linecap:round;stroke-linejoin:round;stroke-miterlimit:10.00000095"
         id="path4296" />
      <path
         d="m 58.499997,80.5 49.000003,0 0,49 -49.000003,0 0,-49 z"
         style="fill:url(#linearGradient6515);stroke:#505050;stroke-width:1;stroke-linecap:round;stroke-linejoin:round;stroke-miterlimit:22.92558479"
         id="path4342" />
      <path
         d="m 58.500002,130.5 49.000008,0 0,49 -49.000008,0 0,-49 z"
         style="fill:url(#linearGradient6511-5);stroke:#505050;stroke-width:1;stroke-linecap:round;stroke-linejoin:round;stroke-miterlimit:22.92558479"
         id="path4344" />
      <path
         d="m 244.5,80.5 49,0 0,49 -49,0 0,-49 z"
         style="fill:url(#linearGradient6517);stroke:#505050;stroke-width:1;stroke-linecap:round;stroke-linejoin:round;stroke-miterlimit:22.92558479"
         id="path4346" />
      <path
         d="m 244.5,130.5 49,0 0,49 -49,0 0,-49 z"
         style="fill:url(#linearGradient6519);stroke:#505050;stroke-width:1;stroke-linecap:round;stroke-linejoin:round;stroke-miterlimit:22.92558479"
         id="path4348" />
      <path
         d="m 58.500002,180.50002 49.000008,0 0,99 -49.000008,0 0,-99 z"
         style="fill:url(#linearGradient6513-5);stroke:#505050;stroke-width:1;stroke-linecap:round;stroke-linejoin:round;stroke-miterlimit:22.92558479"
         id="path4350" />
      <path
         d="m 769.5,60.5 49,0 0,49 -49,0 0,-49 z"
         style="fill:url(#linearGradient6501);stroke:#505050;stroke-width:1;stroke-linecap:round;stroke-linejoin:round;stroke-miterlimit:22.92558479"
         id="path4372" />
      <path
         id="path4374"
         style="fill:url(#linearGradient6497-0);stroke:#505050;stroke-width:1;stroke-linecap:round;stroke-linejoin:round;stroke-miterlimit:22.92558479"
         d="m 769.5,160.5 49,0 0,49 -49,0 0,-49 z" />
      <path
         d="m 769.5,260.5 49,0 0,49 -49,0 0,-49 z"
         style="fill:url(#linearGradient6493);stroke:#505050;stroke-width:1;stroke-linecap:round;stroke-linejoin:round;stroke-miterlimit:22.92558479"
         id="path4376" />
      <path
         d="m 769.5,110.5 49,0 0,49 -49,0 0,-49 z"
         style="fill:url(#linearGradient6499);stroke:#505050;stroke-width:1;stroke-linecap:round;stroke-linejoin:round;stroke-miterlimit:22.92558479"
         id="path4378" />
      <path
         d="m 769.50021,210.5 48.99999,0 0,49 -48.99999,0 0,-49 z"
         style="fill:url(#linearGradient6495-5);stroke:#505050;stroke-width:0.99999994;stroke-linecap:round;stroke-linejoin:round;stroke-miterlimit:22.92558479"
         id="path4380" />
      <path
         d="m 769.5,310.5 49.00001,0 0,49 -49.00001,0 0,-49 z"
         style="fill:url(#linearGradient6491);stroke:#505050;stroke-width:0.99999994;stroke-linecap:round;stroke-linejoin:round;stroke-miterlimit:22.92558479"
         id="path4382" />
      <path
         d="m 1030.5,60.50001 49,0 0,49 -49,0 0,-49 z"
         style="fill:url(#linearGradient6481);stroke:#505050;stroke-width:1;stroke-linecap:round;stroke-linejoin:round;stroke-miterlimit:22.92558479"
         id="path4408" />
      <path
         d="m 1030.5,160.5 49,0 0,49 -49,0 0,-49 z"
         style="fill:url(#linearGradient6485);stroke:#505050;stroke-width:1;stroke-linecap:round;stroke-linejoin:round;stroke-miterlimit:22.92558479"
         id="path4410" />
      <path
         d="m 1030.5,260.5 49,0 0,49 -49,0 0,-49 z"
         style="fill:url(#linearGradient6489);stroke:#505050;stroke-width:1;stroke-linecap:round;stroke-linejoin:round;stroke-miterlimit:22.92558479"
         id="path4412" />
      <path
         d="m 1030.5,110.5 48.3572,0 0,49 -48.3572,0 0,-49 z"
         style="fill:url(#linearGradient6483-8);stroke:#505050;stroke-width:1;stroke-linecap:round;stroke-linejoin:round;stroke-miterlimit:22.92558479"
         id="path4414" />
      <path
         d="m 1030.5,210.50002 48.9999,0 0,49 -48.9999,0 0,-49 z"
         style="fill:url(#linearGradient6487);stroke:#505050;stroke-width:1;stroke-linecap:round;stroke-linejoin:round;stroke-miterlimit:22.92558479"
         id="path4416" />
      <path
         d="m 841.5,260.5 49,0 0,49 -49,0 0,-49 z"
         style="fill:url(#linearGradient6507);stroke:#505050;stroke-width:0.99999994;stroke-linecap:round;stroke-linejoin:round;stroke-miterlimit:22.92558479"
         id="path4438" />
      <path
         d="m 841.5,310.5 49,0 0,49 -49,0 0,-49 z"
         style="fill:url(#linearGradient6509);stroke:#505050;stroke-width:0.99999994;stroke-linecap:round;stroke-linejoin:round;stroke-miterlimit:22.92558479"
         id="path4440" />
      <path
         d="m 841.5,160.49999 49,0 0,99.00001 -49,0 0,-99.00001 z"
         style="fill:url(#linearGradient6505);stroke:#505050;stroke-width:1;stroke-linecap:round;stroke-linejoin:round;stroke-miterlimit:22.92558479"
         id="path4442" />
      <path
         d="m 841.5,60.5 49,0 0,99 -49,0 0,-99 z"
         style="fill:url(#linearGradient6503);stroke:#505050;stroke-width:1;stroke-linecap:round;stroke-linejoin:round;stroke-miterlimit:22.92558479"
         id="path4444" />
    </g>
    <g
       id="Walls">
      <path
         id="path4218"
         style="fill:#ececec;stroke:#1a1a18;stroke-width:1.69986939;stroke-linecap:round;stroke-linejoin:miter;stroke-miterlimit:16.46279335"
         d="m 576.15008,448.77551 0,-31.30013 -18.30014,0 0,31.30013 18.30014,0 z" />
      <path
         d="m 314.15,448.15005 0,-31.3 -18.3,0 0,31.3 18.3,0 z"
         style="fill:#ececec;stroke:#1a1a18;stroke-width:1.70000005;stroke-linecap:round;stroke-linejoin:miter;stroke-miterlimit:16.46279335"
         id="path4234" />
      <path
         d="m 33.574901,60.27255 23,0 0,391.14891 -23,0 0,-391.14891 z"
         style="fill:#ececec;stroke:#1a1a18;stroke-width:2;stroke-linecap:round;stroke-linejoin:miter;stroke-miterlimit:16.46279335"
         id="path4314" />
      <path
         d="m 220.23321,448 173.3674,0 0,23 -173.3674,0 0,-23 z"
         style="fill:#ececec;stroke:#1a1a18;stroke-width:2;stroke-linecap:round;stroke-linejoin:miter;stroke-miterlimit:16.46279335"
         id="path4316" />
      <path
         d="m 481.79242,448 173.3674,0 0,23 -173.3674,0 0,-23 z"
         style="fill:#ececec;stroke:#1a1a18;stroke-width:2;stroke-linecap:round;stroke-linejoin:miter;stroke-miterlimit:16.46279335"
         id="path4318" />
      <path
         d="m 743.19612,448 173.3674,0 0,23 -173.3674,0 0,-23 z"
         style="fill:#ececec;stroke:#1a1a18;stroke-width:2;stroke-linecap:round;stroke-linejoin:miter;stroke-miterlimit:16.46279335"
         id="path4320" />
      <path
         d="m 1005.2255,448 115.1485,0 0,23 -115.1485,0 0,-23 z"
         style="fill:#ececec;stroke:#1a1a18;stroke-width:2;stroke-linecap:round;stroke-linejoin:miter;stroke-miterlimit:16.46279335"
         id="path4322" />
      <path
         d="m 13.858935,448 117.179875,0 0,23 -117.179875,0 0,-23 z"
         style="fill:#ececec;stroke:#1a1a18;stroke-width:1.99999988;stroke-linecap:round;stroke-linejoin:miter;stroke-miterlimit:16.46279335"
         id="path4324" />
      <path
         d="m 295.85,53.84999 18.3,0 0,275.30001 -18.3,0 0,-275.30001 z"
         style="fill:#ececec;stroke:#1a1a18;stroke-width:1.70000005;stroke-linecap:round;stroke-linejoin:miter;stroke-miterlimit:16.46279335"
         id="path4328" />
      <path
         d="m 557.85,53.84999 18.3,0 0,275.29999 -18.3,0 0,-275.29999 z"
         style="fill:#ececec;stroke:#1a1a18;stroke-width:1.69999993;stroke-linecap:round;stroke-linejoin:miter;stroke-miterlimit:16.46279335"
         id="path4332" />
      <path
         d="m 820.84993,53.12771 18.3001,0 0,394.73675 -18.3001,0 0,-394.73675 z"
         style="fill:#ececec;stroke:#1a1a18;stroke-width:1.6998601;stroke-linecap:round;stroke-linejoin:miter;stroke-miterlimit:16.46279335"
         id="path4336" />
      <path
         d="m 1082.3439,53.45423 23.0008,0 0,394.61464 -23.0008,0 0,-394.61464 z"
         style="fill:#ececec;stroke:#1a1a18;stroke-width:1.9992286;stroke-linecap:round;stroke-linejoin:round;stroke-miterlimit:16.46279335"
         id="path4340" />
      <rect
         style="color:#000000;clip-rule:nonzero;display:inline;overflow:visible;visibility:visible;opacity:1;isolation:auto;color-interpolation:sRGB;color-interpolation-filters:linearRGB;solid-color:#000000;solid-opacity:1;fill:#ececec;stroke:#1a1a18;stroke-width:2;stroke-linecap:round;stroke-linejoin:round;stroke-miterlimit:16.46279335;stroke-opacity:1;color-rendering:auto;image-rendering:auto;shape-rendering:auto;text-rendering:auto;enable-background:accumulate"
         id="rect6677"
         width="1069.6799"
         height="23"
         x="35.712147"
         y="30.42321" />
      <path
         d="m 64.978519,66.76699 0,-43 -43,0 0,43 43,0 z"
         style="fill:#ececec;stroke:#1a1a18;stroke-width:2;stroke-linecap:round;stroke-linejoin:miter;stroke-miterlimit:16.46279335"
         id="path4468" />
    </g>
    <g
       id="Labels">
      <path
         style="fill:#2b0000;stroke:#8e7409;stroke-width:0px;stroke-linecap:butt;stroke-linejoin:miter;stroke-opacity:1"
         id="lightning"
         d="m 531.22194,234.55202 -5.36936,15.95096 9.05964,-4.10568 -1.71598,10.45546 -2.19572,-2.09109 2.10346,6.8343 5.33245,-6.04376 -3.39505,1.63207 5.314,-14.43364 -9.9084,3.97817 6.95617,-12.12578 z" />
      <text
         style="font-size:15px;line-height:100%;font-family:sans-serif;text-align:start;text-anchor:start;fill:#1a1a18;stroke:none"
         id="text4352"
         x="60.069492"
         y="109.60543">
        <tspan
           y="109.60543"
           x="60.069492"
           id="tspan6752">He/Ar</tspan>
      </text>
      <text
         style="font-size:15px;line-height:100%;font-family:sans-serif;text-align:start;text-anchor:start;fill:#1a1a18;stroke:none"
         id="text4356"
         x="247.0937"
         y="110.00463">
        <tspan
           y="110.00463"
           x="247.0937"
           id="tspan6740">He/Ar</tspan>
      </text>
      <text
         style="font-size:15px;line-height:100%;font-family:sans-serif;text-align:start;text-anchor:start;fill:#1a1a18;stroke:none"
         id="text4360"
         x="65.730171"
         y="143.80545">
        <tspan
           y="143.80545"
           x="65.730171"
           id="tspan6750">SiH₄</tspan>
      </text>
      <text
         style="font-size:15px;line-height:100%;font-family:sans-serif;text-align:start;text-anchor:start;fill:#1a1a18;stroke:none"
         id="text4364"
         x="73.092422"
         y="203.42191">
        <tspan
           style="font-size:15px;line-height:100%;font-family:sans-serif;text-align:start;text-anchor:start"
           x="73.092422"
           y="203.42191"
           id="tspan4366">H₂</tspan>
      </text>
      <text
         style="font-size:15px;line-height:100%;font-family:sans-serif;text-align:start;text-anchor:start;fill:#1a1a18;stroke:none"
         id="text4368"
         x="255.47061"
         y="144.20425">
        <tspan
           y="144.20425"
           x="255.47061"
           id="tspan6738">NH₃</tspan>
      </text>
      <text
         style="font-size:15px;line-height:100%;font-family:sans-serif;text-align:start;text-anchor:start;fill:#1a1a18;stroke:none"
         id="text4384"
         x="771.66321"
         y="87.842064">
        <tspan
           y="87.842064"
           x="771.66321"
           id="tspan6710">He/Ar</tspan>
      </text>
      <text
         style="font-size:15px;line-height:100%;font-family:sans-serif;text-align:start;text-anchor:start;fill:#1a1a18;stroke:none"
         id="text4388"
         x="772.06042"
         y="187.69482">
        <tspan
           y="187.69482"
           x="772.06042"
           id="tspan6706">He/Ar</tspan>
      </text>
      <text
         style="font-size:15px;line-height:100%;font-family:sans-serif;text-align:start;text-anchor:start;fill:#1a1a18;stroke:none"
         id="text4392"
         x="771.68579"
         y="288.26913">
        <tspan
           y="288.26913"
           x="771.68579"
           id="tspan6712">He/Ar</tspan>
      </text>
      <text
         style="font-style:normal;font-variant:normal;font-weight:normal;font-stretch:normal;font-size:15px;line-height:100%;font-family:sans-serif;-inkscape-font-specification:'sans-serif, Normal';text-align:start;writing-mode:lr-tb;text-anchor:start;fill:#1a1a18;stroke:none"
         id="text4396"
         x="778.53516"
         y="324.80225">
        <tspan
           id="tspan3662"
           x="778.53516"
           y="324.80225">BCl₃</tspan>
      </text>
      <text
         style="font-size:15px;line-height:100%;font-family:sans-serif;text-align:start;text-anchor:start;fill:#1a1a18;stroke:none"
         id="text4400"
         x="782.94244"
         y="224.10059">
        <tspan
           y="224.10059"
           x="782.94244"
           id="tspan6704">Cl₂</tspan>
      </text>
      <text
         style="font-size:15px;line-height:100%;font-family:sans-serif;text-align:start;text-anchor:start;fill:#1a1a18;stroke:none"
         id="text4404"
         x="781.00232"
         y="124.24419">
        <tspan
           y="124.24419"
           x="781.00232"
           id="tspan4542">HBr</tspan>
      </text>
      <text
         style="font-size:15px;line-height:100%;font-family:sans-serif;text-align:start;text-anchor:start;fill:#1a1a18;stroke:none"
         id="text4418"
         x="1032.5313"
         y="90.322929">
        <tspan
           y="90.322929"
           x="1032.5313"
           id="tspan6734">He/Ar</tspan>
      </text>
      <text
         style="font-size:15px;line-height:100%;font-family:sans-serif;text-align:start;text-anchor:start;fill:#1a1a18;stroke:none"
         id="text4422"
         x="1037.0038"
         y="188.31458">
        <tspan
           y="188.31458"
           x="1037.0038"
           id="tspan6730">CHF₃</tspan>
      </text>
      <text
         style="font-size:15px;line-height:100%;font-family:sans-serif;text-align:start;text-anchor:start;fill:#1a1a18;stroke:none"
         id="text4426"
         x="1039.3308"
         y="288.02356">
        <tspan
           y="288.02356"
           x="1039.3308"
           id="tspan6726">C₄F₆</tspan>
      </text>
      <text
         style="font-size:15px;line-height:100%;font-family:sans-serif;text-align:start;text-anchor:start;fill:#1a1a18;stroke:none"
         id="text4430"
         x="1042.4393"
         y="238.96182">
        <tspan
           y="238.96182"
           x="1042.4393"
           id="tspan6728">CF₄</tspan>
      </text>
      <text
         style="font-size:15px;line-height:100%;font-family:sans-serif;text-align:start;text-anchor:start;fill:#1a1a18;stroke:none"
         id="text4434"
         x="1042.8529"
         y="139.14609">
        <tspan
           y="139.14609"
           x="1042.8529"
           id="tspan6732">SF₆</tspan>
      </text>
      <text
         style="font-size:15px;line-height:100%;font-family:sans-serif;text-align:start;text-anchor:start;fill:#1a1a18;stroke:none"
         id="text4446"
         x="851.13446"
         y="288.66879">
        <tspan
           y="288.66879"
           x="851.13446"
           id="tspan6720">N₂O</tspan>
      </text>
      <text
         style="font-size:15px;line-height:100%;font-family:sans-serif;text-align:start;text-anchor:start;fill:#1a1a18;stroke:none"
         id="text4450"
         x="853.96893"
         y="338.20251">
        <tspan
           y="338.20251"
           x="853.96893"
           id="tspan6718">He</tspan>
      </text>
      <text
         style="font-size:15px;line-height:100%;font-family:sans-serif;text-align:start;text-anchor:start;fill:#1a1a18;stroke:none"
         id="text4454"
         x="854.91888"
         y="113.59728">
        <tspan
           y="113.59728"
           x="854.91888"
           id="tspan6724">O₂</tspan>
      </text>
      <text
         style="font-size:15px;line-height:100%;font-family:sans-serif;text-align:start;text-anchor:start;fill:#1a1a18;stroke:none"
         id="text4458"
         x="856.02332"
         y="212.42874">
        <tspan
           y="212.42874"
           x="856.02332"
           id="tspan6722">Ar</tspan>
      </text>
      <g
         transform="translate(-4.035311,-181.32166)"
         id="SensorTypes">
        <text
           y="299.81079"
           x="599.38666"
           id="text4480"
           style="font-size:12.5px;line-height:100%;font-family:sans-serif;text-align:start;text-anchor:start;fill:#1a1a18;stroke:none">
          <tspan
             id="tspan6533"
             x="599.38666"
             y="299.81079">Bodensensoren</tspan>
        </text>
        <text
           y="279.81079"
           x="125.85731"
           id="text4516"
           style="font-size:12.5px;line-height:100%;font-family:sans-serif;text-align:start;text-anchor:start;fill:#1a1a18;stroke:none">
          <tspan
             id="tspan6537"
             x="125.85731"
             y="279.81079">Bodensensor</tspan>
        </text>
        <text
           y="454.90839"
           x="115.57294"
           id="text4528"
           style="font-size:12.5px;line-height:100%;font-family:sans-serif;text-align:start;text-anchor:start;fill:#1a1a18;stroke:none">
          <tspan
             y="454.90839"
             x="115.57294"
             id="tspan6545">Deckensensor</tspan>
        </text>
        <text
           y="359.73077"
           x="148.59947"
           id="text4888"
           style="font-size:12.5px;line-height:100%;font-family:sans-serif;text-align:start;text-anchor:start;fill:#1a1a18;stroke:none">
          <tspan
             y="359.73077"
             x="148.59947"
             id="tspan6744">Deckensensor</tspan>
        </text>
      </g>
      <g
         transform="translate(-4.035311,-181.32166)"
         id="SensorLabels">
        <text
           y="325.10236"
           x="621.52637"
           id="text4484"
           style="font-size:10px;line-height:100%;font-family:sans-serif;text-align:start;text-anchor:start;fill:#1a1a18;stroke:none">
          <tspan
             y="325.10236"
             x="621.52637"
             id="tspan6698">3-1-6</tspan>
        </text>
        <text
           y="345.07419"
           x="621.05615"
           id="text4488"
           style="font-size:10px;line-height:100%;font-family:sans-serif;text-align:start;text-anchor:start;fill:#1a1a18;stroke:none">
          <tspan
             y="345.07419"
             x="621.05615"
             id="tspan6696">3-2-6</tspan>
        </text>
        <text
           y="336.30835"
           x="783.63861"
           id="text4492"
           style="font-size:10px;line-height:100%;font-family:sans-serif;text-align:start;text-anchor:start;fill:#1a1a18;stroke:none">
          <tspan
             y="336.30835"
             x="783.63861"
             id="tspan6758">3-1-5</tspan>
        </text>
        <text
           y="435.52557"
           x="784.23022"
           id="text4496"
           style="font-size:10px;line-height:100%;font-family:sans-serif;text-align:start;text-anchor:start;fill:#1a1a18;stroke:none">
          <tspan
             y="435.52557"
             x="784.23022"
             id="tspan6702">3-2-5</tspan>
        </text>
        <text
           y="535.40271"
           x="784.28558"
           id="text4500"
           style="font-size:10px;line-height:100%;font-family:sans-serif;text-align:start;text-anchor:start;fill:#1a1a18;stroke:none">
          <tspan
             y="535.40271"
             x="784.28558"
             id="tspan6716">3-1-7</tspan>
        </text>
        <text
           y="266.97125"
           x="135.57823"
           id="text4520"
           style="font-size:10px;line-height:100%;font-family:sans-serif;text-align:start;text-anchor:start;fill:#1a1a18;stroke:none">
          <tspan
             y="266.97125"
             x="135.57823"
             id="tspan6746">2-3-8</tspan>
        </text>
        <text
           y="355.97571"
           x="72.146568"
           id="text4524"
           style="font-size:10px;line-height:100%;font-family:sans-serif;text-align:start;text-anchor:start;fill:#1a1a18;stroke:none">
          <tspan
             y="355.97571"
             x="72.146568"
             id="tspan6748">2-3-7</tspan>
        </text>
        <text
           y="430.41907"
           x="65.094925"
           id="text4532"
           style="font-size:10px;line-height:100%;font-family:sans-serif;text-align:start;text-anchor:start;fill:#1a1a18;stroke:none">
          <tspan
             y="430.41907"
             x="65.094925"
             id="tspan6756">7B1</tspan>
        </text>
        <text
           y="420.87723"
           x="88.736572"
           id="text4538"
           style="font-size:10px;line-height:100%;font-family:sans-serif;text-align:start;text-anchor:start;fill:#1a1a18;stroke:none">
          <tspan
             y="420.87723"
             x="88.736572"
             id="tspan6754">6B1</tspan>
        </text>
        <text
           y="339.37302"
           x="186.04356"
           id="text4892"
           style="font-size:10px;line-height:100%;font-family:sans-serif;text-align:start;text-anchor:start;fill:#1a1a18;stroke:none">
          <tspan
             y="339.37302"
             x="186.04356"
             id="tspan6742">1-3-6</tspan>
        </text>
        <text
           y="355.81671"
           x="258.64105"
           id="text4896"
           style="font-size:10px;line-height:100%;font-family:sans-serif;text-align:start;text-anchor:start;fill:#1a1a18;stroke:none">
          <tspan
             y="355.81671"
             x="258.64105"
             id="tspan6736">1-3-7</tspan>
        </text>
      </g>
      <g
         transform="translate(-4.035311,-181.32166)"
         id="Roomnumbers">
        <text
           y="602.65942"
           x="138.25471"
           id="text4900"
           style="font-size:22.5px;line-height:100%;font-family:sans-serif;text-align:start;text-anchor:start;fill:#1a1a18;stroke:none">
          <tspan
             y="602.65942"
             x="138.25471"
             id="tspan6762">R 2032</tspan>
        </text>
        <text
           y="536.4502"
           x="398.827"
           id="text4904"
           style="font-size:22.5px;line-height:100%;font-family:sans-serif;text-align:start;text-anchor:start;fill:#1a1a18;stroke:none">
          <tspan
             y="536.4502"
             x="398.827"
             id="tspan6760">R 2031</tspan>
        </text>
        <text
           y="602.65942"
           x="660.80273"
           id="text4908"
           style="font-size:22.5px;line-height:100%;font-family:sans-serif;text-align:start;text-anchor:start;fill:#1a1a18;stroke:none">
          <tspan
             y="602.65942"
             x="660.80273"
             id="tspan6764">R 2030</tspan>
        </text>
        <text
           y="602.65942"
           x="923.80273"
           id="text4912"
           style="font-size:22.5px;line-height:100%;font-family:sans-serif;text-align:start;text-anchor:start;fill:#1a1a18;stroke:none">
          <tspan
             y="602.65942"
             x="923.80273"
             id="tspan6766">R 2029</tspan>
        </text>
      </g>
      <text
         style="font-size:40px;line-height:100%;font-family:sans-serif;text-align:start;text-anchor:start;fill:#1a1a18;stroke:none"
         id="Titel"
         x="544.04486"
         y="529.88336">
        <tspan
           y="529.88336"
           x="544.04486"
           id="tspan9862">E0</tspan>
      </text>
      <g
         transform="translate(-4.035311,-181.32166)"
         id="Arrows">
        <path
           d="m 75.180086,408.76622 38.605134,42.74993"
           style="fill:none;stroke:#1a1a18;stroke-width:0.74999988;stroke-linecap:butt;stroke-linejoin:miter;stroke-miterlimit:22.93000031"
           id="path4536" />
        <path
           style="fill:none;stroke:#000000;stroke-width:0.75;stroke-linecap:butt;stroke-linejoin:miter;stroke-miterlimit:4"
           d="m 229.06079,329.02803 -16.61521,18.28813 0,-0.70338"
           id="path6804" />
        <path
           style="fill:none;stroke:#000000;stroke-width:0.75;stroke-linecap:butt;stroke-linejoin:miter;stroke-miterlimit:4"
           d="m 108.87443,251.65573 24.79812,17.17735"
           id="path6806" />
        <path
           style="fill:none;stroke:#000000;stroke-width:0.75;stroke-linecap:butt;stroke-linejoin:miter;stroke-miterlimit:4"
           d="m 603.40014,336.7679 21.43653,-34.97362 -23.0623,15.45067"
           id="path6810" />
      </g>
      <text
         y="71.793373"
         x="114.24526"
         id="text4365"
         style="font-size:15px;line-height:100%;font-family:sans-serif;text-align:start;text-anchor:start;fill:#1a1a18;stroke:none">
        <tspan
           id="tspan4367"
           x="114.24526"
           y="71.793373">SiH₄</tspan>
      </text>
    </g>
    <g
       id="Sensors">
      <g
         id="HBR">
        <path
           d="m 592.99977,148.8 c -4.30801,0 -7.79977,-3.4926 -7.79977,-7.80015 0,-4.30766 3.49176,-7.79985 7.79977,-7.79985 4.30847,0 7.80023,3.49219 7.80023,7.79985 0,4.30755 -3.49176,7.80015 -7.80023,7.80015 z"
           style="fill:#e5007d;stroke:#1a1a18;stroke-width:0.40000001;stroke-miterlimit:4"
           id="path4470" />
        <path
           d="m 793.99987,141.8 c -4.30812,0 -7.79987,-3.49258 -7.79987,-7.80012 0,-4.30769 3.49175,-7.79988 7.79987,-7.79988 4.30837,0 7.80013,3.49219 7.80013,7.79988 0,4.30754 -3.49176,7.80012 -7.80013,7.80012 z"
           style="fill:#e5007d;stroke:#1a1a18;stroke-width:0.40000001;stroke-miterlimit:4"
           id="path4472" />
        <path
           d="m 793.99987,341.8 c -4.30811,0 -7.79987,-3.49258 -7.79987,-7.80027 0,-4.30754 3.49176,-7.79973 7.79987,-7.79973 4.30837,0 7.80013,3.49219 7.80013,7.79973 0,4.30769 -3.49176,7.80027 -7.80013,7.80027 z"
           style="fill:#e5007d;stroke:#1a1a18;stroke-width:0.40000001;stroke-miterlimit:4"
           id="path4474" />
      </g>
      <g
         id="CL2">
        <path
           d="m 592.99982,167.8 c -4.30814,0 -7.79982,-3.49257 -7.79982,-7.80011 0,-4.3077 3.49168,-7.79989 7.79982,-7.79989 4.3084,0 7.80018,3.49219 7.80018,7.79989 0,4.30754 -3.49178,7.80011 -7.80018,7.80011 z"
           style="fill:#a7d3ae;stroke:#1a1a18;stroke-width:0.40000001;stroke-miterlimit:4"
           id="path4476" />
        <path
           d="m 793.99982,241.8 c -4.30814,0 -7.79982,-3.49258 -7.79982,-7.80027 0,-4.30754 3.49168,-7.79973 7.79982,-7.79973 4.3084,0 7.80018,3.49219 7.80018,7.79973 0,4.30769 -3.49178,7.80027 -7.80018,7.80027 z"
           style="fill:#a7d3ae;stroke:#1a1a18;stroke-width:0.40000001;stroke-miterlimit:4"
           id="path4478" />
      </g>
      <g
         id="SIH4">
        <path
           d="m 99.304134,59.3976 c 4.308146,0 7.800126,3.491962 7.800126,7.799725 0,4.308168 -3.49198,7.800275 -7.800126,7.800275 -4.307769,0 -7.799874,-3.492107 -7.799874,-7.800275 0,-4.307763 3.492105,-7.799725 7.799874,-7.799725 z"
           style="fill:#ae9675;stroke:#1a1a18;stroke-width:0.40000001;stroke-miterlimit:4"
           id="path4504" />
        <path
           d="M 81.999871,146.2 C 86.308023,146.2 89.8,149.69211 89.8,153.99987 89.8,158.30801 86.308023,161.8 81.999871,161.8 77.692108,161.8 74.2,158.30801 74.2,153.99987 74.2,149.69211 77.692108,146.2 81.999871,146.2 Z"
           style="fill:#ae9675;stroke:#1a1a18;stroke-width:0.40000001;stroke-miterlimit:4"
           id="path4506" />
      </g>
      <g
         id="NH3">
        <path
           d="m 269.99987,146.2 c 4.30814,0 7.80013,3.49199 7.80013,7.79976 0,4.30813 -3.49199,7.80024 -7.80013,7.80024 -4.30776,0 -7.79987,-3.49211 -7.79987,-7.80024 0,-4.30777 3.49211,-7.79976 7.79987,-7.79976 z"
           style="fill:#fff7b2;stroke:#1a1a18;stroke-width:0.40000001;stroke-miterlimit:4"
           id="path4508" />
        <path
           d="m 230.58547,134.06593 c 4.30813,0 7.80024,3.49199 7.80024,7.79976 0,4.30813 -3.49211,7.80024 -7.80024,7.80024 -4.30777,0 -7.79976,-3.49211 -7.79976,-7.80024 0,-4.30777 3.49199,-7.79976 7.79976,-7.79976 z"
           style="fill:#fff7b2;stroke:#1a1a18;stroke-width:0.40000001;stroke-miterlimit:4"
           id="path4510" />
      </g>
      <g
         id="H2">
        <path
           d="m 71.968874,217.44957 c 4.308152,0 7.800129,3.49199 7.800129,7.79976 0,4.30813 -3.491977,7.80024 -7.800129,7.80024 -4.307763,0 -7.799871,-3.49211 -7.799871,-7.80024 0,-4.30777 3.492108,-7.79976 7.799871,-7.79976 z"
           style="fill:#009ee3;stroke:#1a1a18;stroke-width:0.40000001;stroke-miterlimit:4"
           id="path4512" />
        <path
           d="m 93.601231,210.07982 c 4.308148,0 7.800129,3.49211 7.800129,7.79987 0,4.30814 -3.491981,7.80013 -7.800129,7.80013 -4.307762,0 -7.799869,-3.49199 -7.799869,-7.80013 0,-4.30776 3.492107,-7.79987 7.799869,-7.79987 z"
           style="fill:#009ee3;stroke:#1a1a18;stroke-width:0.40000001;stroke-miterlimit:4"
           id="path4514" />
      </g>
    </g>
  </g>
</svg>
