<?xml version="1.0" encoding="UTF-8" standalone="no"?>
<svg
   xmlns:dc="http://purl.org/dc/elements/1.1/"
   xmlns:cc="http://creativecommons.org/ns#"
   xmlns:rdf="http://www.w3.org/1999/02/22-rdf-syntax-ns#"
   xmlns:svg="http://www.w3.org/2000/svg"
   xmlns="http://www.w3.org/2000/svg"
   id="svg4920"
   version="1.1"
   xml:space="preserve"
   width="1055"
   height="620.27563"
   viewBox="0 0 1055 620.27563"><defs
     id="defs144" /><metadata
     id="metadata4926"><rdf:RDF><cc:Work
         rdf:about=""><dc:format>image/svg+xml</dc:format><dc:type
           rdf:resource="http://purl.org/dc/dcmitype/StillImage" /><dc:title></dc:title></cc:Work></rdf:RDF></metadata><g
     transform="translate(-26,-18.999997)"
     id="mainG"><rect
       y="44"
       x="26"
       height="533"
       width="1030"
       id="Room"
       style="color:#000000;clip-rule:nonzero;display:inline;overflow:visible;visibility:visible;opacity:1;isolation:auto;mix-blend-mode:normal;color-interpolation:sRGB;color-interpolation-filters:linearRGB;solid-color:#000000;solid-opacity:1;fill:#cccccc;fill-opacity:1;fill-rule:nonzero;stroke:none;stroke-width:2.11199999;stroke-linecap:round;stroke-linejoin:round;stroke-miterlimit:22.92558479;stroke-dashoffset:0;color-rendering:auto;image-rendering:auto;shape-rendering:auto;text-rendering:auto;enable-background:accumulate" /><g
       id="Extra"><path
         d="m 754.15031,231.46236 -24.30061,0 0,-74.30061 24.30061,0 0,74.30061 z"
         style="fill:#ffcc00;fill-opacity:1;fill-rule:evenodd;stroke:#1a1a18;stroke-width:0.69939041;stroke-linecap:butt;stroke-linejoin:miter;stroke-miterlimit:22.92558479"
         id="path4950-3" /><path
         d="m 890.98309,233.47952 -52.99153,0 0,-38.93918 52.99153,0 0,38.93918 z"
         style="fill:#c83737;fill-opacity:1;fill-rule:evenodd;stroke:#1a1a18;stroke-width:0.69939035;stroke-linecap:butt;stroke-linejoin:miter;stroke-miterlimit:22.92558479"
         id="path4952-3" /><path
         d="m 1054.6465,263.45857 -17.293,0 0,-44.29301 17.293,0 0,44.29301 z"
         style="fill:#ffffff;stroke:#1a1a18;stroke-width:0.70699477;stroke-linecap:butt;stroke-linejoin:miter;stroke-miterlimit:22.92558479"
         id="path5180-7" /><path
         d="m 1054.6465,218.45858 -17.293,0 0,-44.29301 17.293,0 0,44.29301 z"
         style="fill:#ffffff;stroke:#1a1a18;stroke-width:0.70699;stroke-linecap:butt;stroke-linejoin:miter;stroke-miterlimit:22.92558479"
         id="path5182-8" /><path
         d="m 1054.6465,173.45856 -17.293,0 0,-44.29301 17.293,0 0,44.29301 z"
         style="fill:#ffffff;stroke:#1a1a18;stroke-width:0.70699483;stroke-linecap:butt;stroke-linejoin:miter;stroke-miterlimit:22.92558479"
         id="path5184-5" /></g><g
       id="Cabinets"><path
         id="path4990-2"
         style="fill:#ffffff;stroke:#1a1a18;stroke-width:0.70031893;stroke-linecap:butt;stroke-linejoin:miter;stroke-miterlimit:22.92558479"
         d="m 535.64984,523.64984 -144.29968,0 0,-439.29968 144.29968,0 0,439.29968 z" /><path
         id="path5026-9"
         style="fill:#ffffff;stroke:#1a1a18;stroke-width:0.69939035;stroke-linecap:butt;stroke-linejoin:miter;stroke-miterlimit:22.92558479"
         d="m 234.65031,523.65032 -144.300615,0 0,-439.800622 144.300615,0 0,439.800622 z" /><path
         id="path5046-1"
         style="fill:#ffffff;stroke:#1a1a18;stroke-width:0.69969457;stroke-linecap:butt;stroke-linejoin:miter;stroke-miterlimit:22.92558479"
         d="m 654.34986,523.65015 73.8003,0 0,-439.800294 -73.8003,0 0,439.800294 z" /></g><g
       style="fill:#d7e3f4"
       id="Cabinet-Borders"><path
         id="path4960-4"
         d="m 90.349609,83.849609 0,3.800782 69.785161,0 0,68.199219 -69.785161,0 0,3.80078 69.785161,0 0,70.19922 -69.785161,0 0,3.80078 69.785161,0 0,69.19922 -69.785161,0 0,3.80078 69.785161,0 0,70.19922 -69.785161,0 0,3.80078 69.785161,0 0,69.20117 -69.783208,0 0,3.79688 69.783208,0 0,66.20312 -69.783208,0 0,3.79688 69.783208,0 0,0.002 4.79882,0 0,-0.002 69.71485,0 0,-3.79688 -69.71485,0 0,-66.20312 69.71485,0 0,-3.79688 -69.71485,0 0,-69.20117 69.7168,0 0,-3.80078 -69.7168,0 0,-70.19922 69.7168,0 0,-3.80078 -69.7168,0 0,-69.19922 69.7168,0 0,-3.80078 -69.7168,0 0,-70.19922 69.7168,0 0,-3.80078 -69.7168,0 0,-68.199219 69.7168,0 0,-3.800782 -144.300781,0 z m 301.000001,0 0,3.800782 70.5,0 0,68.199219 -70.5,0 0,3.80078 70.5,0 0,70.19922 -70.5,0 0,3.80078 70.5,0 0,69.19922 -70.5,0 0,3.80078 70.5,0 0,70.19922 -70.5,0 0,3.80078 70.5,0 0,69.20117 -70.49805,0 0,3.79688 70.49805,0 0,66.20117 -70.5,0 0,3.80078 144.30078,0 0,-3.80078 -69,0 0,-66.20117 68.99805,0 0,-3.79688 -68.99805,0 0,-69.20117 69,0 0,-3.80078 -69,0 0,-70.19922 69,0 0,-3.80078 -69,0 0,-69.19922 69,0 0,-3.80078 -69,0 0,-70.19922 69,0 0,-3.80078 -69,0 0,-68.199219 69,0 0,-3.800782 -144.30078,0 z m 263,0 0,3.800782 69,0 0,67.199219 -69,0 0,3.80078 69,0 0,69.19922 -69,0 0,3.80078 69,0 0,70.19922 -69,0 0,3.80078 69,0 0,69.19922 -69,0 0,3.80078 69,0 0,70.19922 -69,0 0,3.80078 69,0 0,67.19922 -69,0 0,3.80078 69.30078,0 4.5,0 0,-439.800781 -4.5,0 -69.30078,0 z"
         style="fill:#d7e3f4;fill-opacity:1;stroke:#374548;stroke-width:0.69999999;stroke-linecap:round;stroke-linejoin:miter;stroke-miterlimit:22.92558479" /></g><g
       id="Walls"><path
         id="path5186-7"
         style="fill:#ececec;fill-opacity:1;fill-rule:evenodd;stroke:#1a1a18;stroke-width:2;stroke-linecap:butt;stroke-linejoin:miter;stroke-miterlimit:4"
         d="m 27,20 108,0 0,23 -108,0 0,-23 z" /><path
         d="m 136,43.15 50,0"
         style="fill:none;stroke:#0066ff;stroke-width:1.70000005;stroke-linecap:butt;stroke-linejoin:miter;stroke-miterlimit:4"
         id="path4930-8" /><path
         d="m 336,43.15 -50,0"
         style="fill:none;stroke:#0066ff;stroke-width:1.69999993;stroke-linecap:butt;stroke-linejoin:miter;stroke-miterlimit:4"
         id="path4934-6" /><path
         d="m 486,43.15 -50,0"
         style="fill:none;stroke:#0066ff;stroke-width:1.70000005;stroke-linecap:butt;stroke-linejoin:miter;stroke-miterlimit:4"
         id="path4936-8" /><path
         d="m 586,43.15 50,0"
         style="fill:none;stroke:#0066ff;stroke-width:1.70000005;stroke-linecap:butt;stroke-linejoin:miter;stroke-miterlimit:4"
         id="path4938-1" /><path
         d="m 736,43.149999 50,0"
         style="fill:none;stroke:#0066ff;stroke-width:1.70000005;stroke-linecap:butt;stroke-linejoin:miter;stroke-miterlimit:4"
         id="path4940-4" /><path
         id="path4942-3"
         style="fill:none;stroke:#0066ff;stroke-width:1.70000005;stroke-linecap:butt;stroke-linejoin:miter;stroke-miterlimit:4"
         d="m 886,43.15 50,0" /><path
         id="path4946-8"
         style="fill:#ececec;fill-opacity:1;fill-rule:evenodd;stroke:#1a1a18;stroke-width:2;stroke-linecap:butt;stroke-linejoin:miter;stroke-miterlimit:4"
         d="m 59,294 -23,0 0,-23 23,0 0,23 z" /><path
         id="path4948-5"
         style="fill:#ececec;fill-opacity:1;fill-rule:evenodd;stroke:#1a1a18;stroke-width:2;stroke-linecap:butt;stroke-linejoin:miter;stroke-miterlimit:4"
         d="m 882,294 -23,0 0,-23 23,0 0,23 z" /><path
         id="path4986-8"
         style="fill:#ececec;fill-opacity:1;fill-rule:evenodd;stroke:#1a1a18;stroke-width:1.99999988;stroke-linecap:butt;stroke-linejoin:miter;stroke-miterlimit:4"
         d="m 424,294 -23,0 0,-23 23,0 0,23 z" /><path
         id="path5188-1"
         style="fill:#ececec;fill-opacity:1;fill-rule:evenodd;stroke:#1a1a18;stroke-width:2;stroke-linecap:butt;stroke-linejoin:miter;stroke-miterlimit:4"
         d="m 187,20 98,0 0,23 -98,0 0,-23 z" /><path
         id="path5190-1"
         style="fill:#ececec;fill-opacity:1;fill-rule:evenodd;stroke:#1a1a18;stroke-width:2;stroke-linecap:butt;stroke-linejoin:miter;stroke-miterlimit:4"
         d="m 337,20 98,0 0,23 -98,0 0,-23 z" /><path
         id="path5192-8"
         style="fill:#ececec;fill-opacity:1;fill-rule:evenodd;stroke:#1a1a18;stroke-width:2;stroke-linecap:butt;stroke-linejoin:miter;stroke-miterlimit:4"
         d="m 487,20.000001 98,0 0,23 -98,0 0,-23 z" /><path
         id="path5194-9"
         style="fill:#ececec;fill-opacity:1;fill-rule:evenodd;stroke:#1a1a18;stroke-width:2;stroke-linecap:butt;stroke-linejoin:miter;stroke-miterlimit:4"
         d="m 637,19.999999 98,0 L 735,43 l -98,0 0,-23.000001 z" /><path
         id="path5196-9"
         style="fill:#ececec;fill-opacity:1;fill-rule:evenodd;stroke:#1a1a18;stroke-width:1.99999988;stroke-linecap:butt;stroke-linejoin:miter;stroke-miterlimit:4"
         d="m 787,20.000001 98,0 0,23 -98,0 0,-23 z" /><path
         id="path5198-2"
         style="fill:#ececec;fill-opacity:1;fill-rule:evenodd;stroke:#1a1a18;stroke-width:2;stroke-linecap:butt;stroke-linejoin:miter;stroke-miterlimit:4"
         d="M 937,43 937,20.000358 1080,20 l 0,568 -119,-6e-5 0,-22.99994 96,0 c 0.1085,-31.24077 -0.038,-507.645956 0,-522 z" /><path
         id="path5200-3"
         style="fill:#ececec;fill-opacity:1;fill-rule:evenodd;stroke:#1a1a18;stroke-width:1.99999988;stroke-linecap:butt;stroke-linejoin:miter;stroke-miterlimit:4"
         d="m 27,565 832.00003,0 0,23 L 27,588 27,565 Z" /></g><g
       id="Sensors"
       style="stroke-width:0.40000001"><g
         id="HBR"><path
           d="m 148.97481,123.825 c -4.30802,0 -7.79981,-3.49259 -7.79981,-7.80027 0,-4.30754 3.49179,-7.79973 7.79981,-7.79973 4.30853,0 7.80019,3.49219 7.80019,7.79973 0,4.30768 -3.49166,7.80027 -7.80019,7.80027 z"
           style="fill:#e5007d;fill-opacity:1;fill-rule:evenodd;stroke:#1a1a18;stroke-width:0.40000001;stroke-linecap:butt;stroke-linejoin:miter;stroke-miterlimit:22.92558479"
           id="path5092-8" /><path
           d="m 148.97482,226.825 c -4.30803,0 -7.79982,-3.49258 -7.79982,-7.80013 0,-4.30768 3.49179,-7.79987 7.79982,-7.79987 4.30851,0 7.80018,3.49219 7.80018,7.79987 0,4.30755 -3.49167,7.80013 -7.80018,7.80013 z"
           style="fill:#e5007d;fill-opacity:1;fill-rule:evenodd;stroke:#1a1a18;stroke-width:0.40000001;stroke-linecap:butt;stroke-linejoin:miter;stroke-miterlimit:22.92558479"
           id="path5096-1" /><path
           d="m 476.97482,122.825 c -4.30815,0 -7.79982,-3.49259 -7.79982,-7.80013 0,-4.30754 3.49167,-7.79987 7.79982,-7.79987 4.30839,0 7.80018,3.49233 7.80018,7.79987 0,4.30754 -3.49179,7.80013 -7.80018,7.80013 z"
           style="fill:#e5007d;fill-opacity:1;fill-rule:evenodd;stroke:#1a1a18;stroke-width:0.40000001;stroke-linecap:butt;stroke-linejoin:miter;stroke-miterlimit:22.92558479"
           id="path5100-7" /><path
           d="m 448.97481,340.825 c -4.30815,0 -7.79981,-3.49259 -7.79981,-7.80013 0,-4.30754 3.49166,-7.79987 7.79981,-7.79987 4.3084,0 7.80019,3.49233 7.80019,7.79987 0,4.30754 -3.49179,7.80013 -7.80019,7.80013 z"
           style="fill:#e5007d;fill-opacity:1;fill-rule:evenodd;stroke:#1a1a18;stroke-width:0.40000001;stroke-linecap:butt;stroke-linejoin:miter;stroke-miterlimit:22.92558479"
           id="path5104-8" /></g><g
         id="CL2"><path
           d="m 148.97481,142.825 c -4.30815,0 -7.79981,-3.4927 -7.79981,-7.8002 0,-4.30751 3.49166,-7.7998 7.79981,-7.7998 4.3084,0 7.80019,3.49229 7.80019,7.7998 0,4.3075 -3.49179,7.8002 -7.80019,7.8002 z"
           style="fill:#a7d3ae;fill-opacity:1;fill-rule:evenodd;stroke:#1a1a18;stroke-width:0.40000001;stroke-linecap:butt;stroke-linejoin:miter;stroke-miterlimit:22.92558479"
           id="path5094-6" /><path
           d="m 148.97482,252.825 c -4.30815,0 -7.79982,-3.4926 -7.79982,-7.80014 0,-4.30754 3.49167,-7.79986 7.79982,-7.79986 4.30839,0 7.80018,3.49232 7.80018,7.79986 0,4.30754 -3.49179,7.80014 -7.80018,7.80014 z"
           style="fill:#a7d3ae;fill-opacity:1;fill-rule:evenodd;stroke:#1a1a18;stroke-width:0.40000001;stroke-linecap:butt;stroke-linejoin:miter;stroke-miterlimit:22.92558479"
           id="path5098-6" /><path
           d="m 476.97475,141.825 c -4.30799,0 -7.79975,-3.4926 -7.79975,-7.80014 0,-4.30754 3.49176,-7.79986 7.79975,-7.79986 4.30849,0 7.80025,3.49232 7.80025,7.79986 0,4.30754 -3.49176,7.80014 -7.80025,7.80014 z"
           style="fill:#a7d3ae;fill-opacity:1;fill-rule:evenodd;stroke:#1a1a18;stroke-width:0.40000001;stroke-linecap:butt;stroke-linejoin:miter;stroke-miterlimit:22.92558479"
           id="path5102-2" /><path
           d="m 448.97476,360.825 c -4.308,0 -7.79976,-3.4926 -7.79976,-7.80014 0,-4.30754 3.49176,-7.79986 7.79976,-7.79986 4.30848,0 7.80024,3.49232 7.80024,7.79986 0,4.30754 -3.49176,7.80014 -7.80024,7.80014 z"
           style="fill:#a7d3ae;fill-opacity:1;fill-rule:evenodd;stroke:#1a1a18;stroke-width:0.40000001;stroke-linecap:butt;stroke-linejoin:miter;stroke-miterlimit:22.92558479"
           id="path5106-9" /></g><g
         id="H2"><path
           d="m 708.15003,494.64997 c -4.30859,0 -7.80006,-3.4926 -7.80006,-7.80014 0,-4.30728 3.49147,-7.79986 7.80006,-7.79986 4.30847,0 7.79994,3.49258 7.79994,7.79986 0,4.30754 -3.49147,7.80014 -7.79994,7.80014 z"
           style="fill:#009ee3;fill-opacity:1;fill-rule:evenodd;stroke:#1a1a18;stroke-width:0.40000001;stroke-linecap:butt;stroke-linejoin:miter;stroke-miterlimit:22.92558479"
           id="path5110-0" /><path
           d="m 708.14985,130.64999 c -4.30814,0 -7.79982,-3.49259 -7.79982,-7.80013 0,-4.30756 3.49168,-7.79987 7.79982,-7.79987 4.3084,0 7.80019,3.49231 7.80019,7.79987 0,4.30754 -3.49179,7.80013 -7.80019,7.80013"
           style="fill:#009ee3;fill-opacity:1;fill-rule:evenodd;stroke:#1a1a18;stroke-width:0.40000004;stroke-linecap:butt;stroke-linejoin:miter;stroke-miterlimit:22.92558479"
           id="path5112-1" /><path
           d="m 482.1498,74.65 c -4.30815,0 -7.79982,-3.492328 -7.79982,-7.799873 0,-4.307546 3.49167,-7.800127 7.79982,-7.800127 4.30839,0 7.80018,3.492581 7.80018,7.800127 0,4.307545 -3.49179,7.799873 -7.80018,7.799873 z"
           style="fill:#009ee3;fill-opacity:1;fill-rule:evenodd;stroke:#1a1a18;stroke-width:0.40000001;stroke-linecap:butt;stroke-linejoin:miter;stroke-miterlimit:22.92558479"
           id="path5114-4" /></g><g
         id="SIH4"><path
           d="m 477.14985,482.04998 c 4.30816,0 7.80013,3.49197 7.80013,7.79987 0,4.30801 -3.49197,7.80013 -7.80013,7.80013 -4.30776,0 -7.79987,-3.49212 -7.79987,-7.80013 0,-4.3079 3.49211,-7.79987 7.79987,-7.79987 z"
           style="fill:#ae9675;fill-opacity:1;fill-rule:evenodd;stroke:#1a1a18;stroke-width:0.40000001;stroke-linecap:butt;stroke-linejoin:miter;stroke-miterlimit:22.92558479"
           id="path5212-2" /></g></g><g
       id="Captions"><text
         y="-682.15778"
         x="261.6853"
         id="text5048-8"
         style="font-style:normal;font-variant:normal;font-weight:normal;font-stretch:normal;font-size:22.5px;line-height:125%;font-family:sans-serif;text-align:start;text-anchor:start;fill:#1a1a18;fill-opacity:1;fill-rule:nonzero;stroke:none"
         transform="matrix(0,1,-1,0,0,0)"><tspan
           id="tspan4284"
           x="261.6853"
           y="-682.15778">Regal 1</tspan></text>
<text
         y="-493.15778"
         x="260.75146"
         id="text5052-3"
         style="font-style:normal;font-variant:normal;font-weight:normal;font-stretch:normal;font-size:22.5px;line-height:125%;font-family:sans-serif;text-align:start;text-anchor:start;fill:#1a1a18;fill-opacity:1;fill-rule:nonzero;stroke:none"
         transform="matrix(0,1,-1,0,0,0)"><tspan
           id="tspan4280"
           x="260.75146"
           y="-493.15778">Regal 2</tspan></text>
<text
         y="-190.15779"
         x="260.98218"
         id="text5056-5"
         style="font-style:normal;font-variant:normal;font-weight:normal;font-stretch:normal;font-size:22.5px;line-height:125%;font-family:sans-serif;text-align:start;text-anchor:start;fill:#1a1a18;fill-opacity:1;fill-rule:nonzero;stroke:none"
         transform="matrix(0,1,-1,0,0,0)"><tspan
           id="tspan4282"
           x="260.98218"
           y="-190.15779">Regal 3</tspan></text>
<text
         y="144.67303"
         x="698.19928"
         id="text5116-0"
         style="font-style:normal;font-variant:normal;font-weight:normal;font-stretch:normal;font-size:10px;line-height:125%;font-family:sans-serif;text-align:start;text-anchor:start;fill:#1a1a18;fill-opacity:1;fill-rule:nonzero;stroke:none"><tspan
           id="tspan4304"
           x="698.19928"
           y="144.67303">9B2</tspan></text>
<text
         y="126.02536"
         x="754.66486"
         id="text5120-1"
         style="font-style:normal;font-variant:normal;font-weight:normal;font-stretch:normal;font-size:12.5px;line-height:125%;font-family:sans-serif;text-align:start;text-anchor:start;fill:#1a1a18;fill-opacity:1;fill-rule:nonzero;stroke:none"><tspan
           id="tspan4314"
           x="754.66486"
           y="126.02536">Deckensensor</tspan></text>
<text
         y="508.21973"
         x="697.7937"
         id="text5124-1"
         style="font-style:normal;font-variant:normal;font-weight:normal;font-stretch:normal;font-size:10px;line-height:125%;font-family:sans-serif;text-align:start;text-anchor:start;fill:#1a1a18;fill-opacity:1;fill-rule:nonzero;stroke:none"><tspan
           id="tspan4302"
           x="697.7937"
           y="508.21973">9B1</tspan></text>
<text
         y="491.02539"
         x="757.78986"
         id="text5128-7"
         style="font-style:normal;font-variant:normal;font-weight:normal;font-stretch:normal;font-size:12.5px;line-height:125%;font-family:sans-serif;text-align:start;text-anchor:start;fill:#1a1a18;fill-opacity:1;fill-rule:nonzero;stroke:none"><tspan
           id="tspan4316"
           x="757.78986"
           y="491.02539">Deckensensor</tspan></text>
<text
         y="74.557838"
         x="522.98901"
         id="text5132-4"
         style="font-style:normal;font-variant:normal;font-weight:normal;font-stretch:normal;font-size:12.5px;line-height:125%;font-family:sans-serif;text-align:start;text-anchor:start;fill:#1a1a18;fill-opacity:1;fill-rule:nonzero;stroke:none"><tspan
           id="tspan4318"
           x="522.98901"
           y="74.557838">Deckensensor</tspan></text>
<text
         y="103.29301"
         x="468.85785"
         id="text5136-1"
         style="font-style:normal;font-variant:normal;font-weight:normal;font-stretch:normal;font-size:10px;line-height:125%;font-family:sans-serif;text-align:start;text-anchor:start;fill:#1a1a18;fill-opacity:1;fill-rule:nonzero;stroke:none"><tspan
           id="tspan4286"
           x="468.85785"
           y="103.29301">3-1-3</tspan></text>
<text
         y="153.0563"
         x="468.80219"
         id="text5140-7"
         style="font-style:normal;font-variant:normal;font-weight:normal;font-stretch:normal;font-size:10px;line-height:125%;font-family:sans-serif;text-align:start;text-anchor:start;fill:#1a1a18;fill-opacity:1;fill-rule:nonzero;stroke:none"><tspan
           id="tspan4298"
           x="468.80219"
           y="153.0563">3-2-3</tspan></text>
<text
         y="509.25433"
         x="470.04364"
         id="text5144-7"
         style="font-style:normal;font-variant:normal;font-weight:normal;font-stretch:normal;font-size:10px;line-height:125%;font-family:sans-serif;text-align:start;text-anchor:start;fill:#1a1a18;fill-opacity:1;fill-rule:nonzero;stroke:none"><tspan
           id="tspan4308"
           x="470.04364"
           y="509.25433">2-3-6</tspan></text>
<text
         y="320.89047"
         x="429.78113"
         id="text5148-3"
         style="font-style:normal;font-variant:normal;font-weight:normal;font-stretch:normal;font-size:10px;line-height:125%;font-family:sans-serif;text-align:start;text-anchor:start;fill:#1a1a18;fill-opacity:1;fill-rule:nonzero;stroke:none"><tspan
           id="tspan4296"
           x="429.78113"
           y="320.89047">3-1-4</tspan></text>
<text
         y="371.7644"
         x="428.80719"
         id="text5152-0"
         style="font-style:normal;font-variant:normal;font-weight:normal;font-stretch:normal;font-size:10px;line-height:125%;font-family:sans-serif;text-align:start;text-anchor:start;fill:#1a1a18;fill-opacity:1;fill-rule:nonzero;stroke:none"><tspan
           id="tspan4300"
           x="428.80719"
           y="371.7644">3-2-4</tspan></text>
<text
         y="222.66545"
         x="109.98442"
         id="text5156-6"
         style="font-style:normal;font-variant:normal;font-weight:normal;font-stretch:normal;font-size:10px;line-height:125%;font-family:sans-serif;text-align:start;text-anchor:start;fill:#1a1a18;fill-opacity:1;fill-rule:nonzero;stroke:none"><tspan
           id="tspan4292">3-1-2</tspan></text>
<text
         y="248.24635"
         x="110.03593"
         id="text5160-6"
         style="font-style:normal;font-variant:normal;font-weight:normal;font-stretch:normal;font-size:10px;line-height:125%;font-family:sans-serif;text-align:start;text-anchor:start;fill:#1a1a18;fill-opacity:1;fill-rule:nonzero;stroke:none"><tspan
           id="tspan4294">3-2-2</tspan></text>
<text
         y="119.30852"
         x="109.18025"
         id="text5164-7"
         style="font-style:normal;font-variant:normal;font-weight:normal;font-stretch:normal;font-size:10px;line-height:125%;font-family:sans-serif;text-align:start;text-anchor:start;fill:#1a1a18;fill-opacity:1;fill-rule:nonzero;stroke:none"><tspan
           id="tspan4288">3-1-1</tspan></text>
<text
         y="137.55121"
         x="109.16171"
         id="text5168-8"
         style="font-style:normal;font-variant:normal;font-weight:normal;font-stretch:normal;font-size:10px;line-height:125%;font-family:sans-serif;text-align:start;text-anchor:start;fill:#1a1a18;fill-opacity:1;fill-rule:nonzero;stroke:none"><tspan
           id="tspan4290">3-2-1</tspan></text>
<text
         y="773.68762"
         x="-241.21608"
         id="text5172-0"
         style="font-style:normal;font-variant:normal;font-weight:normal;font-stretch:normal;font-size:17.5px;line-height:125%;font-family:sans-serif;text-align:start;text-anchor:start;fill:#1a1a18;fill-opacity:1;fill-rule:nonzero;stroke:none"
         transform="matrix(0,-1,1,0,0,0)"><tspan
           y="773.68762"
           x="-241.21608"
           id="tspan4270">1 UV 15 P</tspan></text>
<text
         y="220.71227"
         x="897.48499"
         id="text5176-9"
         style="font-style:normal;font-variant:normal;font-weight:normal;font-stretch:normal;font-size:17.5px;line-height:125%;font-family:sans-serif;text-align:start;text-anchor:start;fill:#1a1a18;fill-opacity:1;fill-rule:nonzero;stroke:none"><tspan
           id="tspan4273">Vertex</tspan></text>
<text
         y="57.819538"
         x="523.61401"
         id="text5202-5"
         style="font-style:normal;font-variant:normal;font-weight:normal;font-stretch:normal;font-size:10px;line-height:125%;font-family:sans-serif;text-align:start;text-anchor:start;fill:#1a1a18;fill-opacity:1;fill-rule:nonzero;stroke:none"><tspan
           id="tspan4306"
           x="523.61401"
           y="57.819538">8B1</tspan></text>
<text
         y="499.3399"
         x="270.45688"
         id="text5206-0"
         style="font-style:normal;font-variant:normal;font-weight:normal;font-stretch:normal;font-size:22.5px;line-height:125%;font-family:sans-serif;-inkscape-font-specification:'sans-serif, Normal';text-align:start;text-anchor:start;fill:#1a1a18;fill-opacity:1;fill-rule:nonzero;stroke:none"><tspan
           id="tspan4472"
           x="270.45688"
           y="499.3399">R 3005</tspan><tspan
           id="tspan4474"
           x="270.45688"
           y="527.4649">Bypack</tspan></text>
<text
         style="font-style:normal;font-variant:normal;font-weight:normal;font-stretch:normal;font-size:50px;line-height:125%;font-family:sans-serif;text-align:start;text-anchor:start;fill:#1a1a18;fill-opacity:1;fill-rule:nonzero;stroke:none"
         id="text4693"
         x="509.87466"
         y="639.27563"><tspan
           id="tspan4278"
           x="509.87466"
           y="639.27563">E1</tspan></text>
<path
         id="path4279"
         d="m 489.82698,66.885998 28.70122,0 0,0"
         style="fill:none;fill-rule:evenodd;stroke:#000000;stroke-width:0.99999994px;stroke-linecap:butt;stroke-linejoin:miter" /><path
         id="path4281"
         d="m 715.98819,121.14618 35.66226,-0.76564"
         style="fill:none;fill-rule:evenodd;stroke:#000000;stroke-width:1.03568423px;stroke-linecap:butt;stroke-linejoin:miter" /><path
         id="path4283"
         d="m 715.71221,486.47068 39.00835,-0.38415"
         style="fill:none;fill-rule:evenodd;stroke:#000000;stroke-width:1px;stroke-linecap:butt;stroke-linejoin:miter" /><text
         id="text4285"
         y="224.15614"
         x="166.70042"
         style="font-style:normal;font-variant:normal;font-weight:normal;font-stretch:normal;font-size:15px;line-height:125%;font-family:sans-serif;text-align:start;text-anchor:start;fill:#000000;fill-opacity:1;stroke:none;stroke-width:1px;stroke-linecap:butt;stroke-linejoin:miter"
         xml:space="preserve"><tspan
           y="224.15614"
           x="166.70042"
           id="tspan4287">HBr/BCl₃</tspan></text>
<text
         id="text4285-0"
         y="120.08672"
         x="489.1076"
         style="font-style:normal;font-variant:normal;font-weight:normal;font-stretch:normal;font-size:15px;line-height:125%;font-family:sans-serif;text-align:start;text-anchor:start;fill:#000000;fill-opacity:1;stroke:none;stroke-width:1px;stroke-linecap:butt;stroke-linejoin:miter"
         xml:space="preserve"><tspan
           y="120.08672"
           x="489.1076"
           id="tspan4287-5">HBr/BCl₃</tspan></text>
<text
         id="text4285-5"
         y="337.73679"
         x="372.76724"
         style="font-style:normal;font-variant:normal;font-weight:normal;font-stretch:normal;font-size:15px;line-height:125%;font-family:sans-serif;text-align:start;text-anchor:start;fill:#000000;fill-opacity:1;stroke:none;stroke-width:1px;stroke-linecap:butt;stroke-linejoin:miter"
         xml:space="preserve"><tspan
           y="337.73679"
           x="372.76724"
           id="tspan4287-1">HBr/BCl₃</tspan></text>
<text
         id="text4285-3"
         y="121.84651"
         x="168.85812"
         style="font-style:normal;font-variant:normal;font-weight:normal;font-stretch:normal;font-size:15px;line-height:125%;font-family:sans-serif;text-align:start;text-anchor:start;fill:#000000;fill-opacity:1;stroke:none;stroke-width:1px;stroke-linecap:butt;stroke-linejoin:miter"
         xml:space="preserve"><tspan
           y="121.84651"
           x="168.85812"
           id="tspan4287-54">HBr/BCl₃</tspan></text>
<text
         id="text4323"
         y="71.116875"
         x="451.47052"
         style="font-style:normal;font-variant:normal;font-weight:normal;font-stretch:normal;font-size:15px;line-height:125%;font-family:sans-serif;text-align:start;text-anchor:start;fill:#000000;fill-opacity:1;stroke:none;stroke-width:1px;stroke-linecap:butt;stroke-linejoin:miter"
         xml:space="preserve"><tspan
           y="71.116875"
           x="451.47052"
           id="tspan4327">H₂</tspan></text>
<text
         id="text4363"
         y="495.617"
         x="488.77911"
         style="font-style:normal;font-variant:normal;font-weight:normal;font-stretch:normal;font-size:15px;line-height:125%;font-family:sans-serif;text-align:start;text-anchor:start;fill:#000000;fill-opacity:1;stroke:none;stroke-width:1px;stroke-linecap:butt;stroke-linejoin:miter"
         xml:space="preserve"><tspan
           y="495.617"
           x="488.77911"
           id="tspan4365">SiH₄</tspan></text>
<text
         id="text4363-9"
         y="140.37817"
         x="489.91779"
         style="font-style:normal;font-variant:normal;font-weight:normal;font-stretch:normal;font-size:15px;line-height:125%;font-family:sans-serif;text-align:start;text-anchor:start;fill:#000000;fill-opacity:1;stroke:none;stroke-width:1px;stroke-linecap:butt;stroke-linejoin:miter"
         xml:space="preserve"><tspan
           y="140.37817"
           x="489.91779"
           id="tspan4385">Cl₂</tspan></text>
<text
         id="text4363-9-9"
         y="358.11053"
         x="417.50208"
         style="font-style:normal;font-variant:normal;font-weight:normal;font-stretch:normal;font-size:15px;line-height:125%;font-family:sans-serif;text-align:start;text-anchor:start;fill:#000000;fill-opacity:1;stroke:none;stroke-width:1px;stroke-linecap:butt;stroke-linejoin:miter"
         xml:space="preserve"><tspan
           y="358.11053"
           x="417.50208"
           id="tspan4385-3">Cl₂</tspan></text>
<text
         id="text4363-9-97"
         y="250.4153"
         x="166.94774"
         style="font-style:normal;font-variant:normal;font-weight:normal;font-stretch:normal;font-size:15px;line-height:125%;font-family:sans-serif;text-align:start;text-anchor:start;fill:#000000;fill-opacity:1;stroke:none;stroke-width:1px;stroke-linecap:butt;stroke-linejoin:miter"
         xml:space="preserve"><tspan
           y="250.4153"
           x="166.94774"
           id="tspan4385-34">Cl₂</tspan></text>
<text
         id="text4323-0"
         y="127.2412"
         x="679.32123"
         style="font-style:normal;font-variant:normal;font-weight:normal;font-stretch:normal;font-size:15px;line-height:125%;font-family:sans-serif;text-align:start;text-anchor:start;fill:#000000;fill-opacity:1;stroke:none;stroke-width:1px;stroke-linecap:butt;stroke-linejoin:miter"
         xml:space="preserve"><tspan
           y="127.2412"
           x="679.32123"
           id="tspan4327-3">H₂</tspan></text>
<text
         id="text4323-9"
         y="491.36621"
         x="678.07123"
         style="font-style:normal;font-variant:normal;font-weight:normal;font-stretch:normal;font-size:15px;line-height:125%;font-family:sans-serif;text-align:start;text-anchor:start;fill:#000000;fill-opacity:1;stroke:none;stroke-width:1px;stroke-linecap:butt;stroke-linejoin:miter"
         xml:space="preserve"><tspan
           y="491.36621"
           x="678.07123"
           id="tspan4327-7">H₂</tspan></text>
<text
         id="text4363-9-6"
         y="140.30844"
         x="169.29306"
         style="font-style:normal;font-variant:normal;font-weight:normal;font-stretch:normal;font-size:15px;line-height:125%;font-family:sans-serif;text-align:start;text-anchor:start;fill:#000000;fill-opacity:1;stroke:none;stroke-width:1px;stroke-linecap:butt;stroke-linejoin:miter"
         xml:space="preserve"><tspan
           y="140.30844"
           x="169.29306"
           id="tspan4385-6">Cl₂</tspan></text>
</g><g
       id="Door"><path
         d="m 956.32589,577.22054 -2.83168,0 0,3.21994 2.83168,0"
         style="fill:#ffffff;stroke:#1a1a1a;stroke-width:1.20001197;stroke-linecap:round;stroke-linejoin:round;stroke-miterlimit:10.00000095"
         id="path5074-5-9" /><path
         d="m 863.44546,577.44808 2.83143,0 0,3.21994 -2.83143,0"
         style="fill:#ffffff;stroke:#1a1a1a;stroke-width:1.20001197;stroke-linecap:round;stroke-linejoin:round;stroke-miterlimit:10.00000095"
         id="path5078-9-7" /><path
         id="path5086-3-5"
         style="fill:none;stroke:#1a1a1a;stroke-width:1.20001197;stroke-linecap:round;stroke-linejoin:round;stroke-miterlimit:10.00000095"
         d="m 954.54179,580.46584 0,52.65766 1.49867,0" /><path
         d="m 956.44066,633.12351 0,-66.48369 2.99716,0 0,13.82604 -4.49583,0"
         style="fill:#ffffff;stroke:#1a1a1a;stroke-width:1.20001197;stroke-linecap:round;stroke-linejoin:round;stroke-miterlimit:10.00000095"
         id="path5066-3-4" /><path
         d="m 863.56023,633.35105 0,-66.48368 -2.99752,0 0,13.82604"
         style="fill:#ffffff;stroke:#1a1a1a;stroke-width:1.20001197;stroke-linecap:round;stroke-linejoin:round;stroke-miterlimit:10.00000095"
         id="path5070-9-5" /><path
         d="m 910.20063,580.57963 0.33122,6.44002 1.00145,6.25124 1.66432,6.05914 2.331,5.68567 2.83489,5.48962 3.49802,4.92769 3.82967,4.54333 4.49575,3.78945 4.66503,3.40857 5.16243,2.6542 5.33146,1.70444 5.49728,1.32355 5.49746,0.38073"
         style="fill:none;stroke:#1a1a1a;stroke-width:1.20001197;stroke-linecap:round;stroke-linejoin:round;stroke-miterlimit:10.00000095"
         id="path5082-1-5" /><path
         d="m 910.20063,580.69341 -0.33494,6.44001 -0.99817,6.25125 -1.6644,6.05913 -2.33412,5.68568 -2.83143,5.48962 -3.49793,4.92768 -3.82976,4.54333 -4.49929,3.78946 -4.66184,3.40856 -5.16554,2.6542 -5.32843,1.70444 -5.49702,1.32356 -5.49729,0.38072 1.49833,0 0,-52.65764 -4.49584,0"
         style="fill:none;stroke:#1a1a1a;stroke-width:1.20001197;stroke-linecap:round;stroke-linejoin:round;stroke-miterlimit:10.00000095"
         id="path5090-9-3" /></g></g></svg>