<?xml version="1.0" encoding="UTF-8" standalone="no"?>
<svg id="logo" xmlns:rdf="http://www.w3.org/1999/02/22-rdf-syntax-ns#" xmlns="http://www.w3.org/2000/svg" xml:space="preserve" viewBox="0 0 167 192" version="1.1" xmlns:cc="http://creativecommons.org/ns#" xmlns:dc="http://purl.org/dc/elements/1.1/"><g id="g00" transform="matrix(1.45897 0 0 -1.45897 0 192)">
  <g id="g01" transform="scale(.1)"><path id="Logo" d="m503.402 705.496c0.157-0.098 4.418 8.078 7.868 13.918 28.031 47.383 198.16 468.966 239.82 568.246-56.34 18.57-116.543 28.77-179.125 28.77-315.895 0-571.965-255.94-571.965-571.668 0-52.059 7.10547-102.434 20.1484-150.352 35.9102 23.352 254.79 174.738 255.118 173.672 35.054-129.023 153.136-195.555 228.136-62.586zm505.688 407.794c-42.981-101.61-187.613-442.481-226.391-519.192-76.383-138.856-198.429-268.407-363.777-275.848-194.074-8.73-296.852 65.312-352.176 158.555 96.086-180.645 286.266-303.657 505.219-303.657 315.91 0 571.985 255.942 571.985 571.614 0 140.48-50.81 269.008-134.86 368.528"/></g></g></svg>
