<?xml version="1.0" encoding="UTF-8" standalone="no"?>
<svg
   xmlns:dc="http://purl.org/dc/elements/1.1/"
   xmlns:cc="http://creativecommons.org/ns#"
   xmlns:rdf="http://www.w3.org/1999/02/22-rdf-syntax-ns#"
   xmlns:svg="http://www.w3.org/2000/svg"
   xmlns="http://www.w3.org/2000/svg"
   xmlns:sodipodi="http://sodipodi.sourceforge.net/DTD/sodipodi-0.dtd"
   xmlns:inkscape="http://www.inkscape.org/namespaces/inkscape"
   id="logo+text"
   xml:space="preserve"
   viewBox="0 0 48.000003 20.999998"
   version="1.1"
   inkscape:version="0.91 r13725"
   sodipodi:docname="text_borderless.svg"
   width="48"
   height="21"><metadata
   id="metadata4275"><rdf:RDF><cc:Work
       rdf:about=""><dc:format>image/svg+xml</dc:format><dc:type
         rdf:resource="http://purl.org/dc/dcmitype/StillImage" /><dc:title></dc:title></cc:Work></rdf:RDF></metadata><defs
   id="defs4273" /><sodipodi:namedview
   pagecolor="#ffffff"
   bordercolor="#666666"
   borderopacity="1"
   objecttolerance="10"
   gridtolerance="10"
   guidetolerance="10"
   inkscape:pageopacity="0"
   inkscape:pageshadow="2"
   inkscape:window-width="1680"
   inkscape:window-height="988"
   id="namedview4271"
   showgrid="false"
   inkscape:zoom="8"
   inkscape:cx="19.387753"
   inkscape:cy="-8.9773655"
   inkscape:window-x="-8"
   inkscape:window-y="-8"
   inkscape:window-maximized="1"
   inkscape:current-layer="logo+text"
   fit-margin-top="0"
   fit-margin-left="0"
   fit-margin-right="0"
   fit-margin-bottom="0" />&gt;<g
   id="script"
   transform="matrix(0.01764252,0,0,-0.01759737,-24.576912,20.999997)"><g
     id="line"
     clip-path="url(#clipPath18)"><path
       id="f"
       d="m 1486.3,103.23 0,-17.2105 -71.48,0 0,-82.8476 -19.84,0 0,176.566 96.88,0 0,-17.207 -77.04,0 0,-59.301 71.48,0"
       inkscape:connector-curvature="0" /><path
       id="o"
       d="m 1543.22,92.6484 c 0,-45.7968 19.87,-74.9179 50.82,-74.9179 30.45,0 50.57,29.3906 50.57,73.8515 0,44.738 -20.12,73.859 -50.57,73.859 -30.43,0 -50.82,-29.121 -50.82,-72.7926 z m 122.56,-1.0664 c 0,-54.2617 -29.11,-91.3203 -71.74,-91.3203 -43.4,0 -71.99,36.7969 -71.99,92.6485 0,52.6798 29.65,89.9998 71.99,89.9998 42.63,0 71.74,-37.058 71.74,-91.328"
       inkscape:connector-curvature="0" /><path
       id="r"
       d="m 1742.54,95.8203 c 21.44,0 27.54,0.5313 35.74,3.4414 12.71,4.5003 19.85,15.6173 19.85,30.7073 0,13.5 -6.08,23.82 -16.67,28.32 -8.21,3.711 -14.29,4.242 -39.45,4.242 l -11.91,0 0,-66.7107 12.44,0 z m -1.06,83.9177 c 27.27,0 37.33,-1.066 48.97,-5.566 17.74,-6.883 28.59,-23.563 28.59,-44.461 0,-23.301 -12.16,-39.1798 -36.27,-47.9219 l 46.33,-78.6172 -23.83,0 -44.46,75.4375 -30.71,0 0,-75.4375 -19.85,0 0,176.566 31.23,0"
       inkscape:connector-curvature="0" /><path
       id="s"
       d="m 1949.8,133.93 c -1.85,20.121 -14.29,31.511 -34.41,31.511 -18.52,0 -32.28,-11.39 -32.28,-27 0,-7.421 3.7,-14.031 10.58,-18.531 5.82,-3.969 5.82,-3.969 31.51,-15.621 23.29,-10.3281 32.55,-16.1484 39.17,-24.0898 6.35,-7.9375 9.79,-18.2578 9.79,-29.6406 0,-30.1797 -23.29,-50.2969 -57.7,-50.2969 -21.44,0 -38.39,7.67969 -48.45,21.4375 -6.88,9.5313 -9.79,19.0625 -10.59,35.211 l 19.33,0 c 1.85,-25.4219 15.89,-39.1797 40.5,-39.1797 21.44,0 36.53,12.7109 36.53,30.4414 0,8.7383 -3.45,15.6172 -10.6,21.707 -5.54,4.7695 -10.05,7.1523 -27.52,14.832 -19.06,8.461 -30.7,14.8203 -36.79,19.8481 -10.33,8.472 -15.63,19.32 -15.63,32.293 0,26.726 22.25,46.058 53.22,46.058 19.32,0 35.46,-7.68 44.47,-21.18 5.29,-7.679 7.41,-15.351 8.2,-27.8 l -19.33,0"
       inkscape:connector-curvature="0" /><path
       id="c"
       d="m 2122.93,130.762 c -5.04,23.289 -18.54,34.679 -40.23,34.679 -31.51,0 -51.36,-28.589 -51.36,-74.1207 0,-45.7891 19.58,-73.8515 51.61,-73.8515 24.63,0 39.71,15.8828 42.62,45.5312 l 18.8,0 c -3.18,-40.2383 -25.15,-63 -60.62,-63 -45,0 -73.59,35.1992 -73.59,90.7891 0,55.8519 28.59,92.1209 72.79,92.1209 32.83,0 54,-19.058 58.51,-52.148 l -18.53,0"
       inkscape:connector-curvature="0" /><path
       id="h"
       d="m 2288.91,103.762 0,75.976 19.84,0 0,-176.566 -19.84,0 0,84.1797 -82.86,0 0,-84.1797 -19.86,0 0,176.566 19.86,0 0,-75.976 82.86,0"
       inkscape:connector-curvature="0" /><path
       id="u"
       d="m 2379.42,179.738 0,-104.039 c 0,-27 1.07,-33.6094 6.36,-41.8203 6.62,-10.0586 20.12,-16.1484 36.26,-16.1484 18.8,0 33.62,8.2109 38.92,21.7109 2.91,6.8789 3.43,13.7578 3.43,36.2578 l 0,104.039 19.86,0 0,-104.297 c 0,-28.0625 -0.53,-32.8203 -4.23,-42.3516 -8.48,-20.6484 -29.92,-32.8281 -57.98,-32.8281 -28.32,0 -49.76,12.1797 -58.23,32.8281 -3.71,9.5313 -4.24,14.2891 -4.24,42.3516 l 0,104.297 19.85,0"
       inkscape:connector-curvature="0" /><path
       id="n"
       d="m 2556.78,179.738 84.71,-146.918 0,146.918 18.53,0 0,-176.566 -21.69,0 -84.2,146.648 0,-146.648 -18.8,0 0,176.566 21.45,0"
       inkscape:connector-curvature="0" /><path
       id="g"
       d="m 2838.7,90.7891 0,-72.5274 C 2822.04,6.0781 2802.17,0 2780.47,0 c -47.65,0 -76.25,34.4102 -76.25,91.8516 0,55.5894 28.6,91.0584 73.6,91.0584 33.08,0 54.53,-18.801 58.49,-51.89 l -18.51,0 c -5.3,23.57 -18.01,34.421 -39.98,34.421 -32.56,0 -52.4,-27.793 -52.4,-73.859 0,-47.1132 20.11,-74.1132 55.31,-74.1132 13.49,0 27.01,3.9609 39.98,11.6406 l 0,44.4687 -35.74,0 0,17.211 53.73,0"
       inkscape:connector-curvature="0" /><path
       id="s2"
       d="m 2969.18,133.93 c -1.83,20.121 -14.27,31.511 -34.39,31.511 -18.54,0 -32.3,-11.39 -32.3,-27 0,-7.421 3.71,-14.031 10.58,-18.531 5.82,-3.969 5.82,-3.969 31.51,-15.621 23.3,-10.3281 32.55,-16.1484 39.17,-24.0898 6.35,-7.9375 9.79,-18.2578 9.79,-29.6406 0,-30.1797 -23.28,-50.2969 -57.7,-50.2969 -21.44,0 -38.37,7.67969 -48.43,21.4375 -6.9,9.5313 -9.81,19.0625 -10.61,35.211 l 19.34,0 c 1.85,-25.4219 15.88,-39.1797 40.49,-39.1797 21.44,0 36.54,12.7109 36.54,30.4414 0,8.7383 -3.44,15.6172 -10.59,21.707 -5.56,4.7695 -10.06,7.1523 -27.54,14.832 -19.06,8.461 -30.7,14.8203 -36.79,19.8481 -10.32,8.472 -15.61,19.32 -15.61,32.293 0,26.726 22.23,46.058 53.2,46.058 19.32,0 35.47,-7.68 44.48,-21.18 5.29,-7.679 7.4,-15.351 8.2,-27.8 l -19.34,0"
       inkscape:connector-curvature="0" /><path
       id="z"
       d="m 3138.34,179.738 0,-13.508 -90.8,-145.851 89.2,0 0,-17.207 -112.5,0 0,15.3476 90,144.27 -84.43,0 0,16.949 108.53,0"
       inkscape:connector-curvature="0" /><path
       id="e"
       d="m 3268.58,103.23 0,-17.2105 -71.47,0 0,-65.6406 78.89,0 0,-17.207 -98.75,0 0,176.566 96.9,0 0,-17.207 -77.04,0 0,-59.301 71.47,0"
       inkscape:connector-curvature="0" /><path
       id="n2"
       d="m 3339.52,179.738 84.7,-146.918 0,146.918 18.54,0 0,-176.566 -21.72,0 -84.16,146.648 0,-146.648 -18.81,0 0,176.566 21.45,0"
       inkscape:connector-curvature="0" /><path
       id="t"
       d="m 3590.73,179.738 0,-17.207 -46.08,0 0,-159.359 -19.84,0 0,159.359 -45.8,0 0,17.207 111.72,0"
       inkscape:connector-curvature="0" /><path
       id="r2"
       d="m 3659.01,95.8203 c 21.44,0 27.54,0.5313 35.74,3.4414 12.7,4.5003 19.84,15.6173 19.84,30.7073 0,13.5 -6.07,23.82 -16.66,28.32 -8.22,3.711 -14.29,4.242 -39.45,4.242 l -11.91,0 0,-66.7107 12.44,0 z m -1.06,83.9177 c 27.27,0 37.33,-1.066 48.97,-5.566 17.73,-6.883 28.59,-23.563 28.59,-44.461 0,-23.301 -12.17,-39.1798 -36.27,-47.9219 l 46.33,-78.6172 -23.83,0 -44.47,75.4375 -30.7,0 0,-75.4375 -19.85,0 0,176.566 31.23,0"
       inkscape:connector-curvature="0" /><path
       id="u2"
       d="m 3798.75,179.738 0,-104.039 c 0,-27 1.06,-33.6094 6.35,-41.8203 6.62,-10.0586 20.12,-16.1484 36.27,-16.1484 18.79,0 33.62,8.2109 38.91,21.7109 2.91,6.8789 3.44,13.7578 3.44,36.2578 l 0,104.039 19.86,0 0,-104.297 c 0,-28.0625 -0.53,-32.8203 -4.24,-42.3516 -8.48,-20.6484 -29.92,-32.8281 -57.97,-32.8281 -28.32,0 -49.76,12.1797 -58.24,32.8281 -3.71,9.5313 -4.24,14.2891 -4.24,42.3516 l 0,104.297 19.86,0"
       inkscape:connector-curvature="0" /><path
       id="m"
       d="m 3984.58,179.738 49.51,-154.859 49.76,154.859 29.9,0 0,-176.566 -18.78,0 0,156.707 -50.82,-156.707 -19.87,0 -50.82,156.707 0,-156.707 -18.79,0 0,176.566 29.91,0"
       inkscape:connector-curvature="0" /></g><g
     id="headline"><path
       id="J"
       d="m 1619.63,1016.94 0,-459.225 c 0,-106.367 -3.46,-132.317 -20.76,-164.297 -26.8,-47.578 -80.43,-69.199 -172.96,-69.199 -6.91,0 -18.16,0 -32.86,0.859 l 0,92.539 19.02,0 c 50.16,0.86 76.98,8.66 87.35,26.817 8.65,12.968 9.51,25.925 9.51,110.683 l 0,461.823 110.7,0"
       inkscape:connector-curvature="0" /><path
       id="Ü"
       d="m 2142.82,1130.23 c 0,-35.46 -28.52,-64 -63.13,-64 -35.46,0 -63.99,28.54 -63.99,63.12 0,36.31 28.53,64.01 63.99,64.01 34.61,0 63.13,-28.54 63.13,-63.13 z m -160.84,0 c 0,-35.46 -28.54,-64 -63.14,-64 -35.48,0 -63.99,28.54 -63.99,63.12 0,36.31 28.51,64.01 63.99,64.01 34.6,0 63.14,-28.54 63.14,-63.13 z m -100.34,-113.29 0,-331.221 c 0,-57.938 1.72,-76.989 10.4,-99.449 15.55,-38.918 54.47,-61.418 107.23,-61.418 61.41,0 100.31,27.668 112.42,79.57 4.34,18.172 5.18,35.461 5.18,81.297 l 0,331.221 110.7,0 0,-332.956 c 0,-83.023 -4.31,-111.562 -22.47,-147.882 -32.87,-68.329 -108.96,-107.235 -205.83,-107.235 -96.85,0 -172.97,38.906 -205.83,107.235 -18.16,36.32 -22.47,64.859 -22.47,147.882 l 0,332.956 110.67,0"
       inkscape:connector-curvature="0" /><path
       id="L"
       d="m 2495.67,1016.94 0,-482.577 249.91,0 0,-94.258 -363.21,0 0,576.835 113.3,0"
       inkscape:connector-curvature="0" /><path
       id="I"
       d="m 2849.37,440.105 110.688,0 0,576.832 -110.688,0 0,-576.832 z"
       inkscape:connector-curvature="0" /><path
       id="C"
       d="m 3443.49,829.262 c -10.38,66.601 -48.44,102.922 -107.24,102.922 -85.62,0 -139.23,-78.704 -139.23,-204.957 0,-126.266 53.61,-203.254 140.09,-203.254 67.46,0 103.8,42.39 110.71,129.738 l 98.58,0 c -6.92,-148.731 -76.12,-224.844 -204.98,-224.844 -158.24,0 -259.43,116.746 -259.43,297.485 0,105.507 31.14,187.679 91.68,242.164 44.11,38.904 100.31,59.674 162.58,59.674 122.81,0 195.46,-70.924 203.23,-198.928 l -95.99,0"
       inkscape:connector-curvature="0" /><path
       id="H"
       d="m 3999.55,786.898 0,230.042 110.69,0 0,-576.835 -110.69,0 0,255.118 -229.15,0 0,-255.118 -110.71,0 0,576.835 110.71,0 0,-230.042 229.15,0"
       inkscape:connector-curvature="0" /></g></g></svg>