<?xml version="1.0" encoding="UTF-8" standalone="no"?>
<svg
   xmlns:dc="http://purl.org/dc/elements/1.1/"
   xmlns:cc="http://creativecommons.org/ns#"
   xmlns:rdf="http://www.w3.org/1999/02/22-rdf-syntax-ns#"
   xmlns:svg="http://www.w3.org/2000/svg"
   xmlns="http://www.w3.org/2000/svg"
   xmlns:sodipodi="http://sodipodi.sourceforge.net/DTD/sodipodi-0.dtd"
   xmlns:inkscape="http://www.inkscape.org/namespaces/inkscape"
   id="logo"
   xml:space="preserve"
   viewBox="0 0 48 48"
   version="1.1"
   inkscape:version="0.91 r13725"
   sodipodi:docname="logo_borderless.svg"
   width="48"
   height="48"><metadata
     id="metadata3419"><rdf:RDF><cc:Work
         rdf:about=""><dc:format>image/svg+xml</dc:format><dc:type
           rdf:resource="http://purl.org/dc/dcmitype/StillImage" /><dc:title></dc:title></cc:Work></rdf:RDF></metadata><defs
     id="defs3417" /><sodipodi:namedview
     pagecolor="#ffffff"
     bordercolor="#666666"
     borderopacity="1"
     objecttolerance="10"
     gridtolerance="10"
     guidetolerance="10"
     inkscape:pageopacity="0"
     inkscape:pageshadow="2"
     inkscape:window-width="1680"
     inkscape:window-height="988"
     id="namedview3415"
     showgrid="false"
     fit-margin-top="0"
     fit-margin-left="0"
     fit-margin-right="0"
     fit-margin-bottom="0"
     inkscape:zoom="19.666667"
     inkscape:cx="43.233754"
     inkscape:cy="29.691235"
     inkscape:window-x="-8"
     inkscape:window-y="-8"
     inkscape:window-maximized="1"
     inkscape:current-layer="logo" /><g
     id="g00"
     transform="matrix(0.41959876,0,0,-0.41984392,0,55.269513)"><g
       id="g01"
       transform="scale(0.1,0.1)"><path
         id="Logo"
         d="m 503.402,705.496 c 0.157,-0.098 4.418,8.078 7.868,13.918 28.031,47.383 198.16,468.966 239.82,568.246 -56.34,18.57 -116.543,28.77 -179.125,28.77 C 256.07,1316.43 0,1060.49 0,744.762 0,692.703 7.10547,642.328 20.1484,594.41 c 35.9102,23.352 254.79,174.738 255.118,173.672 35.054,-129.023 153.136,-195.555 228.136,-62.586 z M 1009.09,1113.29 C 966.109,1011.68 821.477,670.809 782.699,594.098 706.316,455.242 584.27,325.691 418.922,318.25 224.848,309.52 122.07,383.562 66.746,476.805 162.832,296.16 353.012,173.148 571.965,173.148 c 315.91,0 571.985,255.942 571.985,571.614 0,140.48 -50.81,269.008 -134.86,368.528"
         inkscape:connector-curvature="0" /></g></g></svg>