<?xml version="1.0" encoding="UTF-8" standalone="no"?>
<!-- Created with Inkscape (http://www.inkscape.org/) -->

<svg
   xmlns:dc="http://purl.org/dc/elements/1.1/"
   xmlns:cc="http://creativecommons.org/ns#"
   xmlns:rdf="http://www.w3.org/1999/02/22-rdf-syntax-ns#"
   xmlns:svg="http://www.w3.org/2000/svg"
   xmlns="http://www.w3.org/2000/svg"
   xmlns:sodipodi="http://sodipodi.sourceforge.net/DTD/sodipodi-0.dtd"
   xmlns:inkscape="http://www.inkscape.org/namespaces/inkscape"
   width="48"
   height="48"
   viewBox="0 0 48 48"
   id="svg4406"
   version="1.1"
   inkscape:version="0.91 r13725"
   sodipodi:docname="appicon-reduziert.svg"
   inkscape:export-filename="D:\Github\webvisual\src\public\img\icons\appicon.png"
   inkscape:export-xdpi="90"
   inkscape:export-ydpi="90">
  <defs
     id="defs4408">
    <inkscape:path-effect
       effect="skeletal"
       id="path-effect4992"
       is_visible="true"
       pattern="m -8.5862966,802.37231 c 0,-2.76 2.24,-5 5,-5 2.75999996,0 5,2.24 5,5 0,2.76 -2.24000004,5 -5,5 -2.76,0 -5,-2.24 -5,-5 z"
       copytype="single_stretched"
       prop_scale="1"
       scale_y_rel="false"
       spacing="0"
       normal_offset="0"
       tang_offset="0"
       prop_units="false"
       vertical_pattern="false"
       fuse_tolerance="0" />
    <inkscape:path-effect
       effect="skeletal"
       id="path-effect4988"
       is_visible="true"
       pattern="m 0,801.36216 c 0,-2.76 2.24,-5 5,-5 2.76,0 5,2.24 5,5 0,2.76 -2.24,5 -5,5 -2.76,0 -5,-2.24 -5,-5 z"
       copytype="single_stretched"
       prop_scale="1"
       scale_y_rel="false"
       spacing="0"
       normal_offset="0"
       tang_offset="0"
       prop_units="false"
       vertical_pattern="false"
       fuse_tolerance="0" />
    <inkscape:path-effect
       effect="powerstroke"
       id="path-effect4984"
       is_visible="true"
       offset_points="0,0.5"
       sort_points="true"
       interpolator_type="Linear"
       interpolator_beta="0.2"
       start_linecap_type="zerowidth"
       linejoin_type="round"
       miter_limit="4"
       end_linecap_type="zerowidth"
       cusp_linecap_type="round" />
    <inkscape:perspective
       sodipodi:type="inkscape:persp3d"
       inkscape:vp_x="-182.14286 : 234.42857 : 1"
       inkscape:vp_y="41.875655 : 999.12285 : 0"
       inkscape:vp_z="256 : 128 : 1"
       inkscape:persp3d-origin="128 : 85.333333 : 1"
       id="perspective4414" />
  </defs>
  <sodipodi:namedview
     id="base"
     pagecolor="#ffffff"
     bordercolor="#666666"
     borderopacity="1.0"
     inkscape:pageopacity="0.0"
     inkscape:pageshadow="2"
     inkscape:zoom="11.2"
     inkscape:cx="-7.5416666"
     inkscape:cy="29.734786"
     inkscape:document-units="px"
     inkscape:current-layer="svg4406"
     showgrid="false"
     units="px"
     inkscape:window-width="1541"
     inkscape:window-height="987"
     inkscape:window-x="0"
     inkscape:window-y="0"
     inkscape:window-maximized="0" />
  <metadata
     id="metadata4411">
    <rdf:RDF>
      <cc:Work
         rdf:about="">
        <dc:format>image/svg+xml</dc:format>
        <dc:type
           rdf:resource="http://purl.org/dc/dcmitype/StillImage" />
        <dc:title></dc:title>
      </cc:Work>
    </rdf:RDF>
  </metadata>
  <path
     style="fill:#241f1c;fill-opacity:1;fill-rule:nonzero;stroke:none;stroke-opacity:1"
     d="m 24.088905,1.9997 -18.4244998,10.6097 -0.0889,22.0005 18.3355898,11.3904 18.4245,-10.61 0.0889,-22.0005 -18.33559,-11.3901 z m -9.75274,12.7512 0.36126,0 c 0.80057,0 1.44506,0.6445 1.44506,1.445 l 0,15.1732 c 0,0.8005 -0.64449,1.445 -1.44506,1.445 l -0.36126,0 c -0.80056,0 -1.44506,-0.6445 -1.44506,-1.445 l 0,-15.1732 c 0,-0.8005 0.6445,-1.445 1.44506,-1.445 z m 6.32213,3.6126 0.36127,0 c 0.80056,0 1.44505,0.6445 1.44505,1.4451 l 0,11.5605 c 0,0.8005 -0.64449,1.445 -1.44505,1.445 l -0.36127,0 c -0.80056,0 -1.44506,-0.6445 -1.44506,-1.445 l 0,-11.5605 c 0,-0.8006 0.6445,-1.4451 1.44506,-1.4451 z m 6.32213,3.6127 0.36127,0 c 0.80056,0 1.44506,0.6445 1.44506,1.445 l 0,7.9479 c 0,0.8005 -0.6445,1.445 -1.44506,1.445 l -0.36127,0 c -0.80056,0 -1.44506,-0.6445 -1.44506,-1.445 l 0,-7.9479 c 0,-0.8005 0.6445,-1.445 1.44506,-1.445 z m 6.32214,3.6126 0.36126,0 c 0.80056,0 1.44506,0.6445 1.44506,1.4451 l 0,4.3352 c 0,0.8005 -0.6445,1.445 -1.44506,1.445 l -0.36126,0 c -0.80057,0 -1.44506,-0.6445 -1.44506,-1.445 l 0,-4.3352 c 0,-0.8006 0.64449,-1.4451 1.44506,-1.4451 z"
     id="path4432"
     inkscape:connector-curvature="0" />
</svg>
