<?xml version="1.0" encoding="UTF-8" standalone="no"?>
<!-- Created with Inkscape (http://www.inkscape.org/) -->

<svg
   xmlns:dc="http://purl.org/dc/elements/1.1/"
   xmlns:cc="http://creativecommons.org/ns#"
   xmlns:rdf="http://www.w3.org/1999/02/22-rdf-syntax-ns#"
   xmlns:svg="http://www.w3.org/2000/svg"
   xmlns="http://www.w3.org/2000/svg"
   xmlns:sodipodi="http://sodipodi.sourceforge.net/DTD/sodipodi-0.dtd"
   xmlns:inkscape="http://www.inkscape.org/namespaces/inkscape"
   width="24"
   height="24"
   viewBox="0 0 24 24"
   id="svg2"
   version="1.1"
   inkscape:version="0.91 r13725"
   sodipodi:docname="icon-dots.svg">
  <defs
     id="defs4" />
  <sodipodi:namedview
     id="base"
     pagecolor="#ffffff"
     bordercolor="#666666"
     borderopacity="1.0"
     inkscape:pageopacity="0.0"
     inkscape:pageshadow="2"
     inkscape:zoom="11.181126"
     inkscape:cx="-8.591676"
     inkscape:cy="17.309385"
     inkscape:document-units="px"
     inkscape:current-layer="svg2"
     showgrid="false"
     units="px"
     inkscape:window-width="1680"
     inkscape:window-height="988"
     inkscape:window-x="-8"
     inkscape:window-y="-8"
     inkscape:window-maximized="1" />
  <metadata
     id="metadata7">
    <rdf:RDF>
      <cc:Work
         rdf:about="">
        <dc:format>image/svg+xml</dc:format>
        <dc:type
           rdf:resource="http://purl.org/dc/dcmitype/StillImage" />
        <dc:title />
      </cc:Work>
    </rdf:RDF>
  </metadata>
  <path
     id="path3394"
     style="color:#000000;clip-rule:nonzero;display:inline;overflow:visible;visibility:visible;opacity:1;isolation:auto;mix-blend-mode:normal;color-interpolation:sRGB;color-interpolation-filters:linearRGB;solid-color:#000000;solid-opacity:1;fill:#000000;fill-opacity:1;fill-rule:nonzero;stroke:none;stroke-width:1;stroke-linecap:square;stroke-linejoin:miter;stroke-miterlimit:4;stroke-dasharray:none;stroke-dashoffset:0;stroke-opacity:1;color-rendering:auto;image-rendering:auto;shape-rendering:auto;text-rendering:auto;enable-background:accumulate"
     d="m 17.5,12.75 a 2,2 0 0 0 -2,2 2,2 0 0 0 2,2 2,2 0 0 0 2,-2 2,2 0 0 0 -2,-2 z m 0,0.66667 A 1.3333334,1.3333334 0 0 1 18.8333,14.75 1.3333334,1.3333334 0 0 1 17.5,16.08333 1.3333334,1.3333334 0 0 1 16.1667,14.75 1.3333334,1.3333334 0 0 1 17.5,13.41667 Z M 12,14.25 a 1.9999998,2 0 0 0 -2.0000002,2 1.9999998,2 0 0 0 2.0000002,2 1.9999998,2 0 0 0 2,-2 1.9999998,2 0 0 0 -2,-2 z m 0,0.666666 A 1.3333332,1.3333334 0 0 1 13.3333,16.25 1.3333332,1.3333334 0 0 1 12,17.583334 1.3333332,1.3333334 0 0 1 10.6667,16.25 1.3333332,1.3333334 0 0 1 12,14.916666 Z M 6.5000002,12.75 a 2,2 0 0 0 -2,2 2,2 0 0 0 2,2 2,2 0 0 0 2,-2 2,2 0 0 0 -2,-2 z m 0,0.666666 A 1.3333334,1.3333334 0 0 1 7.8333302,14.75 1.3333334,1.3333334 0 0 1 6.5000002,16.083334 1.3333334,1.3333334 0 0 1 5.1666702,14.75 1.3333334,1.3333334 0 0 1 6.5000002,13.416666 Z M 18.5,5.7500002 A 2.5,2.4999999 0 0 0 16,8.2500003 2.5,2.4999999 0 0 0 18.5,10.75 2.5,2.4999999 0 0 0 21,8.2500003 2.5,2.4999999 0 0 0 18.5,5.7500002 Z m 0,0.8333335 A 1.6666667,1.6666666 0 0 1 20.166667,8.2500003 1.6666667,1.6666666 0 0 1 18.5,9.9166668 1.6666667,1.6666666 0 0 1 16.833333,8.2500003 1.6666667,1.6666666 0 0 1 18.5,6.5833337 Z M 12,6.7499998 A 3,3 0 0 0 9.0000002,9.7500002 3,3 0 0 0 12,12.75 3,3 0 0 0 15,9.7500002 3,3 0 0 0 12,6.7499998 Z m 0,1.0000004 a 2,2 0 0 1 2,2 A 2,2 0 0 1 12,11.75 2,2 0 0 1 9.9999998,9.7500002 2,2 0 0 1 12,7.7500002 Z m -6.4999998,-2 a 2.5,2.4999999 0 0 0 -2.5,2.5000001 2.5,2.4999999 0 0 0 2.5,2.4999997 2.5,2.4999999 0 0 0 2.5,-2.4999997 2.5,2.4999999 0 0 0 -2.5,-2.5000001 z m 0,0.8333335 A 1.6666667,1.6666666 0 0 1 7.1666669,8.2500003 1.6666667,1.6666666 0 0 1 5.5000002,9.9166668 1.6666667,1.6666666 0 0 1 3.8333335,8.2500003 1.6666667,1.6666666 0 0 1 5.5000002,6.5833337 Z"
     inkscape:connector-curvature="0" />
</svg>
